<?xml version="1.0" encoding="UTF-8" standalone="no"?>
<svg
   xmlns:dc="http://purl.org/dc/elements/1.1/"
   xmlns:cc="http://creativecommons.org/ns#"
   xmlns:rdf="http://www.w3.org/1999/02/22-rdf-syntax-ns#"
   xmlns:svg="http://www.w3.org/2000/svg"
   xmlns="http://www.w3.org/2000/svg"
   xmlns:xlink="http://www.w3.org/1999/xlink"
   xmlns:sodipodi="http://sodipodi.sourceforge.net/DTD/sodipodi-0.dtd"
   xmlns:inkscape="http://www.inkscape.org/namespaces/inkscape"
   inkscape:export-ydpi="96"
   inkscape:export-xdpi="96"
   inkscape:export-filename="/home/bvr/code/scratchpad/shadegan-paper/video/landing/intro.svg.png"
   sodipodi:docname="iitk-logo-master.svg"
   inkscape:version="1.0 (4035a4fb49, 2020-05-01)"
   id="svg8"
   version="1.1"
   viewBox="0 0 1500 1500"
   height="2.5in"
   width="2.5in">
  <defs
     id="defs2">
    <inkscape:path-effect
       simplify_just_coalesce="false"
       simplify_individual_paths="false"
       helper_size="0"
       smooth_angles="360"
       threshold="0.000408163"
       steps="1"
       lpeversion="1"
       is_visible="true"
       id="path-effect2780"
       effect="simplify" />
  </defs>
  <sodipodi:namedview
     fit-margin-bottom="0.05"
     fit-margin-right="0.05"
     fit-margin-left="0.05"
     lock-margins="true"
     fit-margin-top="0.05"
     inkscape:document-rotation="0"
     inkscape:bbox-nodes="true"
     inkscape:bbox-paths="true"
     inkscape:snap-bbox="true"
     inkscape:snap-others="false"
     inkscape:snap-nodes="false"
     inkscape:snap-global="false"
     inkscape:snap-to-guides="true"
     inkscape:snap-grids="true"
     inkscape:guide-bbox="true"
     showguides="false"
     inkscape:window-maximized="0"
     inkscape:window-y="304"
     inkscape:window-x="0"
     inkscape:window-height="1044"
     inkscape:window-width="1916"
     borderlayer="true"
     units="in"
     showgrid="false"
     inkscape:current-layer="layer1"
     inkscape:document-units="in"
     inkscape:cy="216.19696"
     inkscape:cx="295.83993"
     inkscape:zoom="1.4142136"
     inkscape:pageshadow="2"
     inkscape:pageopacity="1"
     borderopacity="1.0"
     bordercolor="#666666"
     pagecolor="#ffffff"
     id="base">
    <sodipodi:guide
       inkscape:color="rgb(168,109,63)"
       inkscape:label=""
       inkscape:locked="false"
       id="guide840"
       orientation="0,1"
       position="2627.1868,1614.6868" />
    <inkscape:grid
       originy="2058.4367"
       originx="1777.1869"
       units="in"
       spacingy="37.500001"
       spacingx="37.500001"
       snapvisiblegridlinesonly="true"
       visible="true"
       enabled="true"
       dotted="false"
       empspacing="16"
       opacity="0.10196078"
       color="#00bfc5"
       empopacity="0.23921569"
       empcolor="#00197a"
       id="grid4530"
       type="xygrid" />
    <sodipodi:guide
       inkscape:color="rgb(200,146,96)"
       inkscape:label="Thirds"
       inkscape:locked="false"
       id="guide836"
       orientation="1,0"
       position="2443.7868,-1335.3131" />
    <sodipodi:guide
       inkscape:color="rgb(200,146,96)"
       inkscape:label="Thirds"
       inkscape:locked="false"
       id="guide838"
       orientation="1,0"
       position="3110.5202,-1335.3131" />
    <sodipodi:guide
       inkscape:color="rgb(175,82,203)"
       inkscape:label="Halves"
       inkscape:locked="false"
       id="guide841"
       orientation="0,1"
       position="1777.1867,-960.31316" />
    <sodipodi:guide
       inkscape:color="rgb(175,82,203)"
       inkscape:label="Halves"
       inkscape:locked="false"
       id="guide843"
       orientation="1,0"
       position="2777.1868,-1335.3131" />
  </sodipodi:namedview>
  <metadata
     id="metadata5">
    <rdf:RDF>
      <cc:Work
         rdf:about="">
        <dc:format>image/svg+xml</dc:format>
        <dc:type
           rdf:resource="http://purl.org/dc/dcmitype/StillImage" />
        <dc:title></dc:title>
      </cc:Work>
    </rdf:RDF>
  </metadata>
  <g
     transform="translate(1777.1868,2058.4368)"
     inkscape:label="Base"
     id="layer1"
     inkscape:groupmode="layer">
    <g
       transform="translate(13.4382,13.4382)"
       id="g2958">
      <path
         id="path2802"
         style="fill:#ff0000;stroke:none;stroke-width:6.25px;stroke-linecap:butt;stroke-linejoin:miter;stroke-opacity:1"
         d="m -1058.4958,-1786.8533 c 0,0 -24.7802,35.0706 -24.7802,73.8282 l -17.3828,2.2949 c -10.0312,-37.437 -43.042,-64.9048 -43.042,-64.9048 l -34.5337,9.2529 c 0,0 -14.8653,40.2974 -4.834,77.7344 l -16.1987,6.7017 c -19.3788,-33.5651 -58.3618,-51.5503 -58.3618,-51.5503 l -30.9693,17.8711 c 0,0 -3.9248,42.7776 15.4542,76.3427 l -13.9039,10.669 c -27.4057,-27.4058 -69.7265,-34.6924 -69.7265,-34.6924 l -25.2808,25.2808 c 0,0 7.2743,42.3329 34.6802,69.7388 l -10.6693,13.9037 c -33.5651,-19.3787 -76.3306,-15.454 -76.3306,-15.454 l -17.8711,30.9448 c 0,0 17.973,39.0074 51.5381,58.3862 l -6.7016,16.1984 c -37.4371,-10.0312 -77.7222,4.8218 -77.7222,4.8218 l -9.2529,34.5215 c 0,0 27.4555,33.0352 64.8926,43.0664 l -2.2827,17.3706 c -38.7577,0 -73.8282,24.7802 -73.8282,24.7802 v 35.7422 c 0,0 35.0705,24.7925 73.8282,24.7925 l 2.2948,17.3706 c -37.437,10.0313 -64.9047,43.042 -64.9047,43.042 l 9.2529,34.5337 c 0,0 40.2973,14.8651 77.7344,4.834 l 6.7016,16.1991 c -33.565,19.3788 -51.5502,58.3618 -51.5503,58.3618 l 17.8711,30.9692 c 0,0 42.7776,3.9247 76.3428,-15.4541 l 10.669,13.9041 c -27.4059,27.4057 -34.6924,69.7266 -34.6924,69.7266 l 25.2808,25.28071 c 0,0 42.3329,-7.27437 69.7387,-34.68011 l 13.9033,10.6692 c -19.3788,33.56503 -15.4541,76.33053 -15.4541,76.33053 l 30.9448,17.87107 c 0,0 39.0075,-17.97299 58.3863,-51.53806 l 16.199,6.70163 c -10.0312,37.437 4.8218,77.72219 4.8218,77.72219 l 34.5215,9.25293 c 0,0 33.0352,-27.45556 43.0664,-64.89256 l 17.3706,2.28269 c 0,38.75761 24.7802,73.82813 24.7802,73.82813 h 35.7423 c 0,0 24.79243,-35.07052 24.79243,-73.82813 l 17.35843,-2.29494 c 10.03113,37.437 43.05419,64.90481 43.05419,64.90481 l 34.53369,-9.25293 c 0,0 14.85306,-40.29745 4.82175,-77.73438 l 16.18682,-6.70169 c 19.37875,33.56513 58.38618,51.55031 58.38618,51.55031 l 30.96926,-17.87107 c 0,0 3.91256,-42.76556 -15.46632,-76.33053 l 13.90332,-10.6692 c 27.40575,27.40574 69.73875,34.68011 69.73875,34.68011 l 25.28081,-25.28071 c 0,0 -7.2865,-42.3209 -34.69244,-69.7266 l 10.6815,-13.9038 c 33.56507,19.3788 76.33057,15.4418 76.33057,15.4418 l 17.87109,-30.9448 c 0,0 -17.98522,-38.9952 -51.55028,-58.374 l 6.71387,-16.199 c 37.43694,10.0312 77.72216,-4.834 77.72216,-4.834 l 9.25292,-34.5215 c 0,0 -27.46782,-33.0229 -64.90476,-43.0542 l 2.29487,-17.3706 c 38.75767,0 73.82815,-24.7925 73.82815,-24.7925 v -35.7422 c 0,0 -35.07048,-24.7802 -73.82815,-24.7802 l -2.29487,-17.3706 c 37.43687,-10.0312 64.90471,-43.0542 64.90476,-43.0542 l -9.25292,-34.5337 c 0,0 -40.29747,-14.8528 -77.73441,-4.8218 l -6.70162,-16.1862 c 33.565,-19.3788 51.55022,-58.3862 51.55028,-58.3862 l -17.87109,-30.9692 c 0,0 -42.7655,-3.9124 -76.33057,15.4662 l -10.66925,-13.9037 c 27.40569,-27.4059 34.68013,-69.7388 34.68019,-69.7388 l -25.28081,-25.2808 c 0,0 -42.32082,7.2867 -69.72657,34.6924 l -13.90331,-10.6814 c 19.37888,-33.565 15.44181,-76.3308 15.44194,-76.3305 l -30.94482,-17.8712 c 0,0 -38.99525,17.9852 -58.37406,51.5503 l -16.199,-6.7138 c 10.03119,-37.4369 -4.83413,-77.7223 -4.834,-77.7222 l -34.5215,-9.253 c 0,0 -33.023,27.4679 -43.05419,64.9049 l -17.37063,-2.295 c 0,-38.7575 -24.79266,-73.8281 -24.79246,-73.8281 z m 7.7271,16.0278 h 20.3003 c 0,4e-4 15.2832,31.17 15.2832,78.3814 l 45.89844,6.0425 c 12.21925,-45.6027 35.05856,-71.7527 35.05863,-71.7529 l 19.6045,5.2612 c -7e-5,2e-4 6.70162,34.0604 -5.51763,79.6631 l 42.77344,17.7124 c 23.60575,-40.8863 52.42913,-60.2293 52.42925,-60.2295 l 17.59031,10.144 c -1.2e-4,2e-4 -2.35868,34.6387 -25.96437,75.525 l 36.731,28.186 c 33.38344,-33.3835 66.23519,-44.6166 66.23531,-44.6167 l 14.35551,14.3554 c -1.3e-4,3e-4 -11.23325,32.8519 -44.61676,66.2354 l 28.18607,36.7309 c 40.88619,-23.6056 75.52475,-25.952 75.52487,-25.9521 l 10.14407,17.5781 c -1.3e-4,2e-4 -19.34319,28.8235 -60.2295,52.4292 l 17.71243,42.7735 c 45.60263,-12.2192 79.67511,-5.5176 79.67528,-5.5176 l 5.24903,19.6045 c -1.8e-4,10e-5 -26.15024,22.8394 -71.75293,35.0586 l 6.0425,45.8984 c 47.21128,0 78.3812,15.2954 78.38132,15.2954 v 20.3004 c -1.2e-4,0 -31.17004,15.2831 -78.38132,15.2831 l -6.0425,45.8985 c 45.60263,12.2192 71.7528,35.0585 71.75293,35.0585 l -5.26123,19.6168 c -1.3e-4,-10e-5 -34.06045,6.6894 -79.66308,-5.5298 l -17.71243,42.7734 c 40.88625,23.6057 60.22944,52.4292 60.2295,52.4292 l -10.14407,17.5904 c -6e-5,-2e-4 -34.63868,-2.3587 -75.52487,-25.9644 l -28.18607,36.731 c 33.38351,33.3835 44.61663,66.2352 44.61676,66.2353 l -14.35551,14.35543 c -6e-5,-6e-5 -32.85187,-11.23323 -66.23531,-44.61663 l -36.731,28.186 c 23.60569,40.88632 25.95206,75.52476 25.95219,75.52488 l -17.57813,10.14406 c -6e-5,-1.2e-4 -28.82356,-19.34331 -52.42925,-60.2295 l -42.77344,17.71238 c 12.21925,45.60275 5.51756,79.67512 5.51763,79.67531 l -19.6045,5.249 c -7e-5,-6e-5 -22.83944,-26.15025 -35.05863,-71.75288 l -45.89844,6.04244 c 0,47.21144 -15.2832,78.38125 -15.2832,78.38138 h -20.3003 c 0,-1.3e-4 -15.2954,-31.16994 -15.2954,-78.38138 l -45.8984,-6.04244 c -12.2193,45.60269 -35.0463,71.75276 -35.0464,71.75288 l -19.6167,-5.249 c 10e-5,-1.2e-4 -6.7017,-34.07256 5.5176,-79.67531 l -42.7735,-17.71238 c -23.6058,40.88625 -52.4168,60.24163 -52.417,60.24169 l -17.5903,-10.15625 c 10e-5,-6e-5 2.3465,-34.63863 25.9522,-75.52488 l -36.731,-28.186 c -33.3836,33.3835 -66.2353,44.61657 -66.2354,44.61663 l -14.3555,-14.35543 c 2e-4,-10e-5 11.2332,-32.8518 44.6168,-66.2353 l -28.1861,-36.731 c -40.8863,23.6058 -75.5248,25.9521 -75.5248,25.9521 l -10.1441,-17.5781 c 0,0 19.3431,-28.8235 60.2295,-52.4292 l -17.7124,-42.7734 c -45.6027,12.2193 -79.6753,5.5175 -79.6753,5.5175 l -5.2491,-19.6045 c 2e-4,0 26.1502,-22.8393 71.753,-35.0585 l -6.0425,-45.8985 c -47.2115,0 -78.3813,-15.2831 -78.3813,-15.2831 v -20.3004 c 0,0 31.1698,-15.2954 78.3813,-15.2954 l 6.0425,-45.8984 c -45.6028,-12.2192 -71.753,-35.0464 -71.753,-35.0464 l 5.2491,-19.6167 c 10e-5,0 34.0725,-6.7016 79.6753,5.5176 l 17.7124,-42.7735 c -40.8864,-23.6057 -60.2417,-52.417 -60.2417,-52.417 l 10.1563,-17.5903 c 0,0 34.6385,2.3464 75.5248,25.9521 l 28.1861,-36.7309 c -33.3835,-33.3836 -44.6166,-66.2351 -44.6168,-66.2354 l 14.3555,-14.3554 c 0,10e-5 32.8518,11.2331 66.2354,44.6167 l 36.731,-28.186 c -23.6057,-40.8863 -25.9521,-75.5248 -25.9522,-75.525 l 17.5781,-10.144 c -10e-5,2e-4 28.8235,19.3432 52.4292,60.2295 l 42.7735,-17.7124 c -12.2193,-45.6027 -5.5175,-79.6751 -5.5176,-79.6753 l 19.6045,-5.249 c -10e-5,0 22.8394,26.1501 35.0586,71.7529 l 45.8984,-6.0425 c 0,-47.2114 15.2954,-78.381 15.2954,-78.3814 z"
         sodipodi:nodetypes="cccccccccccccccccccccccccccccccccccccccccccccccccccccccccccccccccccccccccccccccccccccccccccccccccccccccccccccccccccccccccccccccccccccccccccccccccccccccccccccccccccccccccccccccccccccccccccccccccc" />
      <circle
         style="fill:none;fill-rule:evenodd;stroke:#ff0000;stroke-width:21;stroke-linecap:round;stroke-linejoin:round;stroke-miterlimit:4;stroke-dasharray:none;paint-order:markers fill stroke;stop-color:#000000"
         id="path2848"
         cx="-1040.625"
         cy="-1321.875"
         r="696.06183" />
      <circle
         r="510.37897"
         cy="-1321.875"
         cx="-1040.625"
         id="circle2850"
         style="fill:none;fill-rule:evenodd;stroke:#ff0000;stroke-width:19.2;stroke-linecap:round;stroke-linejoin:round;stroke-miterlimit:4;stroke-dasharray:none;paint-order:markers fill stroke;stop-color:#000000" />
      <circle
         style="fill:none;fill-rule:evenodd;stroke:#ff0000;stroke-width:16.8;stroke-linecap:round;stroke-linejoin:round;stroke-miterlimit:4;stroke-dasharray:none;paint-order:markers fill stroke;stop-color:#000000"
         id="circle2852"
         cx="-1040.625"
         cy="-1321.875"
         r="336.61365" />
      <path
         d="m -1043.3114,-1598.3933 c -2.9184,47.489 -27.4604,89.1405 -46.3632,131.5888 -26.8618,59.9582 -27.9231,131.6547 1.5254,190.8834 4.9081,11.1427 14.3236,23.2147 7.1604,35.6176 -8.0916,22.0864 -42.3169,24.2084 -54.3881,4.576 -17.9743,-28.0556 -11.2731,-63.7348 2.39,-92.0557 15.7854,-32.8975 0.2054,-74.0212 -29.5744,-93.0565 -39.2648,-27.3925 -103.5366,-8.8889 -116.8016,38.6002 17.9079,-2.454 44.1008,5.1132 40.7183,27.7965 -16.9794,39.53 -25.994,84.758 -10.8718,126.4104 19.6323,67.2541 85.4956,114.881 154.6731,118.0646 0.398,19.4997 -1.264,39.0645 0.991,58.4979 29.0506,10.6121 61.8844,4.5775 92.3279,2.7204 6.10196,-18.8365 2.71951,-38.9382 3.44904,-58.3716 55.58084,-5.107 112.02149,-31.5717 141.86797,-80.3874 27.79042,-42.3156 35.41719,-97.6971 17.57566,-145.385 -4.97441,-12.4691 -9.48142,-29.8411 3.18671,-39.193 8.68866,-9.6834 22.54782,-3.9773 33.5579,-4.508 -3.91323,-21.1578 -20.03381,-37.8779 -38.40602,-47.6941 -36.94328,-19.8314 -88.80532,-5.1707 -108.10604,32.6349 -12.8008,21.7546 -13.13484,49.1445 -2.3901,71.8278 13.59678,28.5863 14.39372,66.9928 -7.22843,91.9975 -21.09152,16.7804 -58.50139,-3.7834 -48.68509,-31.1095 24.34142,-44.8361 39.73273,-97.1644 30.38083,-148.3678 -7.16315,-66.7898 -55.84703,-120.7103 -58.96433,-188.5613 z m 2.118,36.5502 c 15.8518,55.9125 46.30223,108.3034 46.96546,167.7311 1.72449,42.3157 -0.99576,87.153 -24.14346,124.03 -16.5149,28.918 9.9441,64.4006 41.51506,63.074 29.05058,-5.3723 49.01541,-33.3599 53.98983,-61.1502 7.22955,-39.1321 -31.89713,-73.6874 -14.32082,-112.4879 18.90279,-43.5758 84.02613,-49.4148 112.54614,-12.3389 -11.20904,7.0969 -26.12722,12.7415 -29.64249,27.0678 -5.90294,12.204 0.92779,24.7363 4.17777,36.6086 16.24971,52.5298 2.78099,112.6859 -34.62661,153.0118 -32.56585,37.2086 -82.83193,57.9026 -132.04548,55.1169 -39.6627,-1.6581 -80.7888,5.0458 -118.7933,-9.7448 -83.8354,-26.7955 -134.0446,-131.598 -95.3106,-212.3162 11.6734,-22.0864 -6.0312,-45.102 -26.99,-52.0662 29.0506,-37.4739 96.5009,-29.1132 111.6231,16.983 14.857,36.8107 -21.0972,67.051 -17.4493,103.53 0.5306,29.9129 21.893,63.3501 53.7956,65.8042 26.9945,1.2601 50.4754,-25.476 44.8378,-51.9399 -5.9693,-18.3722 -18.6451,-34.4175 -20.9664,-54.1162 -5.903,-46.6932 -6.3672,-95.507 8.4234,-140.7409 9.6835,-36.2802 31.7052,-68.2506 36.4143,-106.0562 z m 1.5934,71.0312 c -6.3673,5.8366 -5.499,14.7882 -7.0245,22.482 -2.2551,37.8719 -33.4953,67.991 -29.1178,107.0568 -2.1887,29.6475 17.9679,53.1892 24.9984,80.5816 2.7194,0.6633 8.0925,1.9892 10.7455,2.6524 10.811,-27.2598 30.3751,-52.4653 29.3802,-83.1077 1.3928,-20.2956 -2.7117,-40.5854 -11.9309,-58.6922 -11.3417,-21.9538 -14.5306,-46.6978 -17.0509,-70.9729 z m -1.1271,55.7776 c 7.6938,18.3721 13.2041,37.6123 17.051,57.2446 -12.4692,-6.8315 -26.4691,-7.6293 -38.474,1.4573 6.8979,-19.3007 7.76,-42.7175 21.423,-58.7019 z m -152.6816,145.7833 c -6.641,-3.1655 -13.9332,-4.8538 -23.541,-0.2621 4.8418,-16.0508 15.173,-30.8227 25.984,-43.5572 l 7.4138,3.4282 c -2.6497,11.9069 -9.2599,27.3914 -9.8568,40.3911 z m 21.7622,-39.3774 c 6.1722,-17.755 4.3004,-40.7406 -16.9238,-51.9495 l 2e-4,-2e-4 c 1.5254,10.0814 8.9101,21.4283 0.2039,31.3039 -13.641,15.4733 -31.2544,27.9475 -38.4741,48.3548 -9.2552,26.161 5.3044,52.5485 26.8639,69.7098 6.8298,5.4365 23.6095,13.0715 37.9829,12.6798 -1.4432,-15.5949 -12.9933,-33.5624 -16.3559,-47.9671 -4.4445,-19.0394 -2.2169,-36.4728 6.7029,-62.1315 z m 280.75427,-49.7637 c -11.73962,3.9133 -21.42326,12.141 -23.34672,25.0081 1.65812,19.566 8.2824,38.4026 8.08342,58.1676 1.32653,23.2803 -8.35055,44.9006 -16.57488,66.1247 -2.05614,12.1376 12.72851,14.0654 20.4223,9.3562 27.72404,-10.7447 50.27924,-38.8684 46.10073,-69.7097 -2.12238,-30.1782 -31.77247,-45.4389 -44.10902,-70.6426 4.04584,-5.6377 7.23543,-11.738 9.42417,-18.3043 z m -133.12387,34.1603 c -5.0408,16.9793 -10.807,33.8226 -18.965,49.6081 -10.3468,-13.5304 -13.6669,-30.5096 -18.9066,-46.2951 12.7345,2.852 26.1983,4.7123 37.8716,-3.313 z m 123.56364,7.6948 c 17.97424,12.5355 25.81024,33.4222 31.38159,53.7178 -7.82645,-2.4541 -15.72771,-3.1825 -23.68677,-2.254 2.18874,-17.6426 -3.11836,-34.6835 -7.69482,-51.4638 z m -290.77004,70.3025 c 6.3578,11.9597 13.4711,23.892 16.1182,36.8125 -17.1783,-6.8978 -30.1725,-20.0983 -40.7182,-34.8889 10.0498,5.0168 15.252,2.8285 24.6,-1.9236 z m 294.68545,0.9327 c 5.77032,1.7244 17.2461,5.2319 23.01642,6.9563 -11.9386,13.1324 -25.00166,25.4101 -41.58303,32.4406 6.49992,-12.9998 13.06162,-25.9992 18.56661,-39.3969 z m -118.12295,155.0034 c 0.066,17.0457 0.1359,34.0181 0.1359,50.9975 -20.76,3.1172 -41.7198,2.5216 -62.4134,-0.3303 -0.1328,-16.8467 -0.2005,-33.7621 -0.069,-50.6088 20.7599,-0.1328 41.5855,-0.1243 62.3454,-0.058 z"
         style="fill:#ff0000;stroke-width:6.63253"
         id="path1194"
         sodipodi:nodetypes="ccccccccccccccccccccccccccccccccccccccccccccccccccccccccccccccccsscssscsscccccccccccccccccccccccccccccc" />
      <path
         id="circle2877"
         style="fill:none;fill-rule:evenodd;stroke:none;stroke-width:19.5205;stroke-linecap:round;stroke-linejoin:round;stroke-miterlimit:4;stroke-dasharray:none;paint-order:markers fill stroke;stop-color:#000000"
         d="m -1687.4665,-1341.7025 c -5.5747,234.8278 116.5564,458.70407 319.0826,577.6929 202.5262,118.98883 453.63219,118.87001 656.04564,-0.31043 202.41347,-119.18046 324.33686,-338.70027 318.53994,-573.52277"
         sodipodi:nodetypes="cssc" />
      <text
         xml:space="preserve"
         style="font-weight:500;font-size:95.4167px;line-height:1.25;font-family:'Cormorant Garamond';-inkscape-font-specification:'Cormorant Garamond, Medium';letter-spacing:0px;word-spacing:25px;writing-mode:lr-tb;fill:#ff0000;stroke-width:6.25"
         id="text2881"><textPath
           xlink:href="#circle2877"
           id="textPath2883"
           style="font-style:normal;font-variant:normal;font-weight:500;font-stretch:normal;font-size:95.4167px;font-family:Roboto;-inkscape-font-specification:'Roboto Medium';fill:#ff0000;stroke-width:6.25">INDIAN INSTITUTE OF TECHNOLOGY KANPUR</textPath></text>
      <path
         id="circle2887"
         style="fill:none;fill-rule:evenodd;stroke:none;stroke-width:17.6024;stroke-linecap:round;stroke-linejoin:round;stroke-miterlimit:4;stroke-dasharray:none;paint-order:markers fill stroke;stop-color:#000000"
         sodipodi:type="arc"
         sodipodi:cx="-1040.6289"
         sodipodi:cy="-1296.2482"
         sodipodi:rx="583.4447"
         sodipodi:ry="583.4447"
         sodipodi:start="3.6565794"
         sodipodi:end="5.757932"
         sodipodi:open="true"
         sodipodi:arc-type="arc"
         d="m -1548.4004,-1583.6083 a 583.4447,583.4447 0 0 1 504.7765,-296.0769 583.4447,583.4447 0 0 1 507.78957,290.8791" />
      <text
         xml:space="preserve"
         style="font-weight:500;font-size:101.667px;line-height:1.25;font-family:'Cormorant Garamond';-inkscape-font-specification:'Cormorant Garamond, Medium';letter-spacing:-5px;word-spacing:15.625px;writing-mode:lr-tb;fill:#ff0000;stroke-width:6.25"
         id="text2891"><textPath
           xlink:href="#circle2887"
           id="textPath2893"
           style="font-style:normal;font-variant:normal;font-weight:500;font-stretch:normal;font-size:101.667px;font-family:Eczar;-inkscape-font-specification:'Eczar Medium';fill:#ff0000;stroke-width:6.25">भारतीय प्रौद्योगिकी संस्थान कानपुर</textPath></text>
      <circle
         style="fill:#ff0000;fill-rule:evenodd;stroke:none;stroke-width:16.8;stroke-linecap:round;stroke-linejoin:round;stroke-miterlimit:4;stroke-dasharray:none;paint-order:markers fill stroke;stop-color:#000000"
         id="path2896"
         cx="-1613.8542"
         cy="-1495.2382"
         r="32.586052" />
      <circle
         r="32.586052"
         cy="-1495.2382"
         cx="-465.52206"
         id="circle2898"
         style="fill:#ff0000;fill-rule:evenodd;stroke:none;stroke-width:16.8;stroke-linecap:round;stroke-linejoin:round;stroke-miterlimit:4;stroke-dasharray:none;paint-order:markers fill stroke;stop-color:#000000" />
    </g>
  </g>
</svg>
