<svg width="2.5in" height="2.5in" version="1.1" viewBox="0 0 1500 1500" xmlns="http://www.w3.org/2000/svg">
 <g transform="translate(1777.2 2058.4)">
  <g fill="#000080">
   <path d="m-1045.1-1773.4s-24.78 35.071-24.78 73.828l-17.383 2.2949c-10.031-37.437-43.042-64.905-43.042-64.905l-34.534 9.2529s-14.865 40.297-4.834 77.734l-16.199 6.7017c-19.379-33.565-58.362-51.55-58.362-51.55l-30.969 17.871s-3.9248 42.778 15.454 76.343l-13.904 10.669c-27.406-27.406-69.726-34.692-69.726-34.692l-25.281 25.281s7.2743 42.333 34.68 69.739l-10.669 13.904c-33.565-19.379-76.331-15.454-76.331-15.454l-17.871 30.945s17.973 39.007 51.538 58.386l-6.7016 16.198c-37.437-10.031-77.722 4.8218-77.722 4.8218l-9.2529 34.522s27.456 33.035 64.893 43.066l-2.2827 17.371c-38.758 0-73.828 24.78-73.828 24.78v35.742s35.07 24.792 73.828 24.792l2.2948 17.371c-37.437 10.031-64.905 43.042-64.905 43.042l9.2529 34.534s40.297 14.865 77.734 4.834l6.7016 16.199c-33.565 19.379-51.55 58.362-51.55 58.362l17.871 30.969s42.778 3.9247 76.343-15.454l10.669 13.904c-27.406 27.406-34.692 69.727-34.692 69.727l25.281 25.281s42.333-7.2744 69.739-34.68l13.903 10.669c-19.379 33.565-15.454 76.331-15.454 76.331l30.945 17.871s39.008-17.973 58.386-51.538l16.199 6.7016c-10.031 37.437 4.8218 77.722 4.8218 77.722l34.522 9.2529s33.035-27.456 43.066-64.893l17.371 2.2827c0 38.758 24.78 73.828 24.78 73.828h35.742s24.792-35.071 24.792-73.828l17.358-2.2949c10.031 37.437 43.054 64.905 43.054 64.905l34.534-9.2529s14.853-40.297 4.8218-77.734l16.187-6.7017c19.379 33.565 58.386 51.55 58.386 51.55l30.969-17.871s3.9126-42.766-15.466-76.331l13.903-10.669c27.406 27.406 69.739 34.68 69.739 34.68l25.281-25.281s-7.2865-42.321-34.692-69.727l10.682-13.904c33.565 19.379 76.331 15.442 76.331 15.442l17.871-30.945s-17.985-38.995-51.55-58.374l6.7139-16.199c37.437 10.031 77.722-4.834 77.722-4.834l9.2529-34.522s-27.468-33.023-64.905-43.054l2.2949-17.371c38.758 0 73.828-24.792 73.828-24.792v-35.742s-35.07-24.78-73.828-24.78l-2.2949-17.371c37.437-10.031 64.905-43.054 64.905-43.054l-9.2529-34.534s-40.297-14.853-77.734-4.8218l-6.7016-16.186c33.565-19.379 51.55-58.386 51.55-58.386l-17.871-30.969s-42.766-3.9124-76.331 15.466l-10.669-13.904c27.406-27.406 34.68-69.739 34.68-69.739l-25.281-25.281s-42.321 7.2867-69.727 34.692l-13.903-10.681c19.379-33.565 15.442-76.331 15.442-76.33l-30.945-17.871s-38.995 17.985-58.374 51.55l-16.199-6.7138c10.031-37.437-4.8341-77.722-4.834-77.722l-34.522-9.253s-33.023 27.468-43.054 64.905l-17.371-2.295c0-38.758-24.793-73.828-24.792-73.828zm7.7271 16.028h20.3c0 4e-4 15.283 31.17 15.283 78.381l45.898 6.0425c12.219-45.603 35.059-71.753 35.059-71.753l19.604 5.2612c-7e-5 2e-4 6.7016 34.06-5.5176 79.663l42.773 17.712c23.606-40.886 52.429-60.229 52.429-60.23l17.59 10.144c-1.2e-4 2e-4 -2.3587 34.639-25.964 75.525l36.731 28.186c33.383-33.384 66.235-44.617 66.235-44.617l14.356 14.355c-1.3e-4 3e-4 -11.233 32.852-44.617 66.235l28.186 36.731c40.886-23.606 75.525-25.952 75.525-25.952l10.144 17.578c-1.3e-4 2e-4 -19.343 28.824-60.23 52.429l17.712 42.774c45.603-12.219 79.675-5.5176 79.675-5.5176l5.249 19.604c-1.8e-4 1e-4 -26.15 22.839-71.753 35.059l6.0425 45.898c47.211 0 78.381 15.295 78.381 15.295v20.3c-1.2e-4 0-31.17 15.283-78.381 15.283l-6.0425 45.898c45.603 12.219 71.753 35.058 71.753 35.058l-5.2612 19.617c-1.3e-4 -1e-4 -34.06 6.6894-79.663-5.5298l-17.712 42.773c40.886 23.606 60.229 52.429 60.23 52.429l-10.144 17.59c-6e-5 -2e-4 -34.639-2.3587-75.525-25.964l-28.186 36.731c33.384 33.384 44.617 66.235 44.617 66.235l-14.356 14.355c-6e-5 -6e-5 -32.852-11.233-66.235-44.617l-36.731 28.186c23.606 40.886 25.952 75.525 25.952 75.525l-17.578 10.144c-6e-5 -1.2e-4 -28.824-19.343-52.429-60.23l-42.773 17.712c12.219 45.603 5.5176 79.675 5.5176 79.675l-19.604 5.249c-7e-5 -6e-5 -22.839-26.15-35.059-71.753l-45.898 6.0424c0 47.211-15.283 78.381-15.283 78.381h-20.3c0-1.3e-4 -15.295-31.17-15.295-78.381l-45.898-6.0424c-12.219 45.603-35.046 71.753-35.046 71.753l-19.617-5.249c1e-4 -1.2e-4 -6.7017-34.073 5.5176-79.675l-42.774-17.712c-23.606 40.886-52.417 60.242-52.417 60.242l-17.59-10.156c1e-4 -6e-5 2.3465-34.639 25.952-75.525l-36.731-28.186c-33.384 33.384-66.235 44.617-66.235 44.617l-14.356-14.355c2e-4 -1e-4 11.233-32.852 44.617-66.235l-28.186-36.731c-40.886 23.606-75.525 25.952-75.525 25.952l-10.144-17.578s19.343-28.824 60.23-52.429l-17.712-42.773c-45.603 12.219-79.675 5.5175-79.675 5.5175l-5.2491-19.604c2e-4 0 26.15-22.839 71.753-35.058l-6.0425-45.898c-47.212 0-78.381-15.283-78.381-15.283v-20.3s31.17-15.295 78.381-15.295l6.0425-45.898c-45.603-12.219-71.753-35.046-71.753-35.046l5.2491-19.617c1e-4 0 34.072-6.7016 79.675 5.5176l17.712-42.774c-40.886-23.606-60.242-52.417-60.242-52.417l10.156-17.59s34.638 2.3464 75.525 25.952l28.186-36.731c-33.384-33.384-44.617-66.235-44.617-66.235l14.356-14.355c0 1e-4 32.852 11.233 66.235 44.617l36.731-28.186c-23.606-40.886-25.952-75.525-25.952-75.525l17.578-10.144c-1e-4 2e-4 28.824 19.343 52.429 60.23l42.774-17.712c-12.219-45.603-5.5175-79.675-5.5176-79.675l19.604-5.249c-1e-4 0 22.839 26.15 35.059 71.753l45.898-6.0425c0-47.211 15.295-78.381 15.295-78.381z"/>
   <g fill-rule="evenodd" shape-rendering="auto">
    <path d="m-1027.2-2015c-187.39 0-367.11 74.444-499.61 206.95s-206.95 312.23-206.95 499.61c-1e-4 187.39 74.444 367.11 206.95 499.62s312.23 206.95 499.61 206.95c187.39 1e-5 367.11-74.444 499.62-206.95 132.39-132.39 206.8-311.91 206.94-499.12a10.5 10.5 0 0 0 0.01172-0.4961 10.5 10.5 0 0 0-0.01367-0.5313 10.5 10.5 0 0 0 0-0.0136c-0.14459-187.19-74.559-366.69-206.93-499.07-132.5-132.5-312.23-206.95-499.62-206.95zm0 21c181.83-1e-4 356.19 72.224 484.77 200.79 128.57 128.57 200.8 302.94 200.8 484.77s-72.226 356.19-200.8 484.77c-128.57 128.57-302.94 200.8-484.77 200.8-181.83-1e-5 -356.2-72.226-484.77-200.8-128.57-128.57-200.8-302.94-200.79-484.77 0-181.83 72.224-356.2 200.79-484.77 128.57-128.57 302.94-200.79 484.77-200.79z" color="#000000" color-rendering="auto" dominant-baseline="auto" image-rendering="auto" solid-color="#000000" stop-color="#000000" style="font-feature-settings:normal;font-variant-alternates:normal;font-variant-caps:normal;font-variant-east-asian:normal;font-variant-ligatures:normal;font-variant-numeric:normal;font-variant-position:normal;font-variation-settings:normal;inline-size:0;isolation:auto;mix-blend-mode:normal;paint-order:markers fill stroke;shape-margin:0;shape-padding:0;text-decoration-color:#000000;text-decoration-line:none;text-decoration-style:solid;text-indent:0;text-orientation:mixed;text-transform:none;white-space:normal"/>
    <path d="m-1027.2-1828.4c-137.9 0-270.17 54.786-367.68 152.3-97.512 97.512-152.3 229.78-152.3 367.68s54.786 270.17 152.3 367.68c97.512 97.512 229.78 152.3 367.68 152.3 137.9 1e-5 270.17-54.786 367.68-152.3 97.425-97.425 152.19-229.54 152.29-367.31a9.6 9.6 0 0 0 0.00977-0.3711 9.6 9.6 0 0 0-0.00977-0.3848c-0.10211-137.76-54.868-269.87-152.29-367.29-97.512-97.512-229.78-152.3-367.68-152.3zm0 19.201c132.82-1e-4 260.19 52.757 354.11 146.67s146.67 221.28 146.67 354.1c0 132.82-52.757 260.19-146.67 354.11-93.917 93.917-221.29 146.67-354.11 146.67-132.82-2e-5 -260.19-52.757-354.1-146.67-93.917-93.917-146.67-221.29-146.67-354.11 0-132.82 52.757-260.19 146.67-354.1 93.917-93.917 221.28-146.67 354.1-146.67z" color="#000000" color-rendering="auto" dominant-baseline="auto" image-rendering="auto" solid-color="#000000" stop-color="#000000" style="font-feature-settings:normal;font-variant-alternates:normal;font-variant-caps:normal;font-variant-east-asian:normal;font-variant-ligatures:normal;font-variant-numeric:normal;font-variant-position:normal;font-variation-settings:normal;inline-size:0;isolation:auto;mix-blend-mode:normal;paint-order:markers fill stroke;shape-margin:0;shape-padding:0;text-decoration-color:#000000;text-decoration-line:none;text-decoration-style:solid;text-indent:0;text-orientation:mixed;text-transform:none;white-space:normal"/>
    <path d="m-1027.2-1653.5c-190.45 1e-4 -345.01 154.57-345.01 345.01 0 190.45 154.57 345.01 345.01 345.01 190.31 2e-5 344.78-154.34 345-344.6a8.4 8.4 0 0 0 0.00976-0.3808 8.4 8.4 0 0 0 0-0.0352 8.4 8.4 0 0 0-0.01172-0.4258c-0.23161-190.25-154.7-344.59-345-344.59zm0 16.801c181.36 0 328.2 146.83 328.21 328.18v0.0332c2e-5 181.37-146.85 328.21-328.21 328.21-181.37-2e-5 -328.21-146.85-328.21-328.21s146.85-328.21 328.21-328.21z" color="#000000" color-rendering="auto" dominant-baseline="auto" image-rendering="auto" solid-color="#000000" stop-color="#000000" style="font-feature-settings:normal;font-variant-alternates:normal;font-variant-caps:normal;font-variant-east-asian:normal;font-variant-ligatures:normal;font-variant-numeric:normal;font-variant-position:normal;font-variation-settings:normal;inline-size:0;isolation:auto;mix-blend-mode:normal;paint-order:markers fill stroke;shape-margin:0;shape-padding:0;text-decoration-color:#000000;text-decoration-line:none;text-decoration-style:solid;text-indent:0;text-orientation:mixed;text-transform:none;white-space:normal"/>
   </g>
   <path d="m-1029.9-1585c-2.9184 47.489-27.46 89.14-46.363 131.59-26.862 59.958-27.923 131.65 1.5254 190.88 4.9081 11.143 14.324 23.215 7.1604 35.618-8.0916 22.086-42.317 24.208-54.388 4.576-17.974-28.056-11.273-63.735 2.39-92.056 15.785-32.898 0.2054-74.021-29.574-93.056-39.265-27.392-103.54-8.8889-116.8 38.6 17.908-2.454 44.101 5.1132 40.718 27.796-16.979 39.53-25.994 84.758-10.872 126.41 19.632 67.254 85.496 114.88 154.67 118.06 0.398 19.5-1.264 39.064 0.991 58.498 29.051 10.612 61.884 4.5775 92.328 2.7204 6.102-18.836 2.7195-38.938 3.449-58.372 55.581-5.107 112.02-31.572 141.87-80.387 27.79-42.316 35.417-97.697 17.576-145.38-4.9744-12.469-9.4814-29.841 3.1867-39.193 8.6887-9.6834 22.548-3.9773 33.558-4.508-3.9132-21.158-20.034-37.878-38.406-47.694-36.943-19.831-88.805-5.1707-108.11 32.635-12.801 21.755-13.135 49.144-2.3901 71.828 13.597 28.586 14.394 66.993-7.2284 91.998-21.092 16.78-58.501-3.7834-48.685-31.11 24.341-44.836 39.733-97.164 30.381-148.37-7.1632-66.79-55.847-120.71-58.964-188.56zm2.118 36.55c15.852 55.912 46.302 108.3 46.965 167.73 1.7245 42.316-0.99576 87.153-24.143 124.03-16.515 28.918 9.9441 64.401 41.515 63.074 29.051-5.3723 49.015-33.36 53.99-61.15 7.2296-39.132-31.897-73.687-14.321-112.49 18.903-43.576 84.026-49.415 112.55-12.339-11.209 7.0969-26.127 12.742-29.642 27.068-5.9029 12.204 0.92779 24.736 4.1778 36.609 16.25 52.53 2.781 112.69-34.627 153.01-32.566 37.209-82.832 57.903-132.05 55.117-39.663-1.6581-80.789 5.0458-118.79-9.7448-83.835-26.796-134.04-131.6-95.311-212.32 11.673-22.086-6.0312-45.102-26.99-52.066 29.051-37.474 96.501-29.113 111.62 16.983 14.857 36.811-21.097 67.051-17.449 103.53 0.5306 29.913 21.893 63.35 53.796 65.804 26.994 1.2601 50.475-25.476 44.838-51.94-5.9693-18.372-18.645-34.418-20.966-54.116-5.903-46.693-6.3672-95.507 8.4234-140.74 9.6835-36.28 31.705-68.251 36.414-106.06zm1.5934 71.031c-6.3673 5.8366-5.499 14.788-7.0245 22.482-2.2551 37.872-33.495 67.991-29.118 107.06-2.1887 29.648 17.968 53.189 24.998 80.582 2.7194 0.6633 8.0925 1.9892 10.746 2.6524 10.811-27.26 30.375-52.465 29.38-83.108 1.3928-20.296-2.7117-40.585-11.931-58.692-11.342-21.954-14.531-46.698-17.051-70.973zm-1.1271 55.778c7.6938 18.372 13.204 37.612 17.051 57.245-12.469-6.8315-26.469-7.6293-38.474 1.4573 6.8979-19.301 7.76-42.718 21.423-58.702zm-152.68 145.78c-6.641-3.1655-13.933-4.8538-23.541-0.2621 4.8418-16.051 15.173-30.823 25.984-43.557l7.4138 3.4282c-2.6497 11.907-9.2599 27.391-9.8568 40.391zm21.762-39.377c6.1722-17.755 4.3004-40.741-16.924-51.95l2e-4 -2e-4c1.5254 10.081 8.9101 21.428 0.2039 31.304-13.641 15.473-31.254 27.948-38.474 48.355-9.2552 26.161 5.3044 52.548 26.864 69.71 6.8298 5.4365 23.61 13.072 37.983 12.68-1.4432-15.595-12.993-33.562-16.356-47.967-4.4445-19.039-2.2169-36.473 6.7029-62.132zm280.75-49.764c-11.74 3.9133-21.423 12.141-23.347 25.008 1.6581 19.566 8.2824 38.403 8.0834 58.168 1.3265 23.28-8.3506 44.901-16.575 66.125-2.0561 12.138 12.729 14.065 20.422 9.3562 27.724-10.745 50.279-38.868 46.101-69.71-2.1224-30.178-31.772-45.439-44.109-70.643 4.0458-5.6377 7.2354-11.738 9.4242-18.304zm-133.12 34.16c-5.0408 16.979-10.807 33.823-18.965 49.608-10.347-13.53-13.667-30.51-18.907-46.295 12.734 2.852 26.198 4.7123 37.872-3.313zm123.56 7.6948c17.974 12.536 25.81 33.422 31.382 53.718-7.8264-2.4541-15.728-3.1825-23.687-2.254 2.1887-17.643-3.1184-34.684-7.6948-51.464zm-290.77 70.302c6.3578 11.96 13.471 23.892 16.118 36.812-17.178-6.8978-30.172-20.098-40.718-34.889 10.05 5.0168 15.252 2.8285 24.6-1.9236zm294.69 0.9327c5.7703 1.7244 17.246 5.2319 23.016 6.9563-11.939 13.132-25.002 25.41-41.583 32.441 6.4999-13 13.062-25.999 18.567-39.397zm-118.12 155c0.066 17.046 0.1359 34.018 0.1359 50.998-20.76 3.1172-41.72 2.5216-62.413-0.3303-0.1328-16.847-0.2005-33.762-0.069-50.609 20.76-0.1328 41.586-0.1243 62.345-0.058z" stroke-width="6.6325"/>
   <g stroke-width="6.25" aria-label="INDIAN INSTITUTE OF TECHNOLOGY KANPUR">
    <path d="m-1674.2-1308.9 0.035-11.741 67.835 0.2047-0.035 11.741z"/>
    <path d="m-1670.8-1240.7-0.8206-11.759 45.906-33.514-48.011 3.3504-0.8206-11.759 67.671-4.7223 0.8205 11.759-46.085 33.62 48.197-3.3634 0.8141 11.666z"/>
    <path d="m-1669-1226.9 66.868-11.418 3.372 19.748q1.5135 8.8636-1.2677 16.381-2.7733 7.5632-9.3865 12.568t-15.982 6.6046l-3.3526 0.5725q-9.5066 1.6232-17.368-0.9574-7.8534-2.5348-12.957-8.8948-5.0957-6.3142-6.6405-15.362zm59.483 1.8013-48.222 8.2338 1.2939 7.5778q1.5605 9.1391 8.0865 13.035 6.5798 3.9338 17.296 2.1985l3.72-0.6352q10.884-1.8585 15.817-7.5691 4.933-5.7105 3.396-14.712z"/>
    <path d="m-1654.5-1153.5-2.7573-11.412 65.938-15.931 2.7573 11.412z"/>
    <path d="m-1624.8-1107.9-7.9071-25.059-16.716-0.4902-3.6872-11.685 72.402 4.0243 3.1825 10.086-56.966 44.894-3.7012-11.73zm2.1522-24.764 5.9163 18.75 23.878-17.843z"/>
    <path d="m-1610.4-1029.5-4.6445-10.834 32.32-46.754-44.234 18.964-4.6445-10.834 62.347-26.729 4.6445 10.834-32.454 46.913 44.405-19.037 4.6078 10.748z"/>
    <path d="m-1573.7-963.93-6.1439-10.005 57.806-35.498 6.1439 10.005z"/>
    <path d="m-1534.9-907.73-6.877-9.5733 21.447-52.636-39.088 28.079-6.877-9.5733 55.094-39.577 6.877 9.5733-21.544 52.821 39.239-28.188 6.8227 9.4976z"/>
    <path d="m-1489.6-881.78q3.3649-2.9465 3.1004-6.926-0.2337-3.9445-3.778-11.74-3.5443-7.7957-4.4581-13.436-1.7265-10.812 5.3188-16.981 6.169-5.402 14.554-3.8887 8.4156 1.5484 15.444 9.575 4.6654 5.3278 6.355 11.218 1.6896 5.8899 0.1315 11.465-1.5232 5.5449-5.9396 9.4122l-7.7347-8.8329q3.9958-3.499 4.0292-7.987 0.099-4.4837-3.9831-9.1455-3.8059-4.3463-7.7814-5.1381-3.9449-0.75674-7.2747 2.1591-2.8041 2.4554-2.4256 6.7067 0.4136 4.2205 3.8438 11.745 3.4653 7.4933 4.3484 13.099 0.9181 5.5746-0.5529 9.8353-1.436 4.23-5.3617 7.6676-6.3793 5.5862-14.462 3.9938-8.0168-1.5879-15.352-9.9652-4.8496-5.5381-6.8988-11.98-1.9835-6.4376-0.6445-12.193 1.3697-5.7201 6.1717-9.9251l7.7653 8.8679q-4.3463 3.806-4.2129 8.7673 0.1333 4.9613 4.8294 10.324 4.0515 4.6267 7.9349 5.3134 3.9492 0.69099 7.0337-2.01z"/>
    <path d="m-1411.9-862.37-15.302-14.603-40.271 42.199-8.4601-8.0734 40.271-42.199-15.168-14.474 6.5617-6.8759 38.93 37.151z"/>
    <path d="m-1435.6-806.76-9.0121-7.525 43.478-52.07 9.0121 7.525z"/>
    <path d="m-1350.5-815.76-17.104-12.444-34.316 47.169-9.4563-6.8797 34.316-47.169-16.954-12.334 5.5915-7.6856 43.514 31.657z"/>
    <path d="m-1300-796.91-23.085 39.014q-5.5043 9.3025-14.705 11.221-9.1373 1.9017-19.041-3.9584-10.024-5.9313-12.763-14.752-2.7151-8.8606 2.9078-18.364l23.061-38.974 10.104 5.9788-23.108 39.054q-3.4639 5.8541-2.3236 10.697t6.9142 8.2596q11.708 6.9278 19.016-5.422l22.919-38.734z"/>
    <path d="m-1254.1-764.57-19.126-9.0338-24.913 52.743-10.574-4.9945 24.913-52.743-18.957-8.9543 4.0593-8.5939 48.657 22.983z"/>
    <path d="m-1223-723.27-26.126-9.6776-7.2501 19.573 30.539 11.312-3.269 8.8252-41.592-15.407 23.563-63.611 41.286 15.293-3.3014 8.9126-30.233-11.199-6.5057 17.563 26.126 9.6776z"/>
    <path d="m-1113.7-699.02q-1.8495 9.7973-6.6375 16.574-4.7792 6.7313-11.849 9.5216-7.0153 2.7532-15.21 1.2062-8.1034-1.5297-13.724-6.6682-5.5659-5.1757-7.6625-13.158-2.0508-7.9732-0.2903-17.55l0.7087-3.7541q1.8408-9.7515 6.6832-16.566 4.8881-6.8056 11.903-9.5588 7.0698-2.7903 15.219-1.252 8.1491 1.5384 13.678 6.6596 5.5833 5.0841 7.6254 13.103 2.0509 7.9732 0.2558 17.733zm-10.926-5.666q2.0915-11.079-1.0055-17.78-3.0512-6.6923-10.742-8.1442-7.5082-1.4174-12.881 3.6847-5.3181 5.0649-7.4407 15.806l-0.726 3.8456q-2.0742 10.988 1.0514 17.789 3.1713 6.8098 10.771 8.2444 7.6913 1.4519 12.918-3.6303 5.2724-5.0736 7.3984-16.336z"/>
    <path d="m-1066.3-691.08-27.178-2.5949-2.7321 28.616-11.734-1.1203 6.4474-67.528 42.901 4.096-0.9033 9.4614-31.167-2.9757-1.9174 20.082 27.178 2.5949z"/>
    <path d="m-964.39-722.48-21.113 1.2881 3.5522 58.223-11.672 0.71213-3.5522-58.223-20.927 1.2767-0.5788-9.4868 53.712-3.2769z"/>
    <path d="m-917.22-701.25-27.559 4.0897 3.0638 20.646 32.214-4.7804 1.3815 9.3093-43.873 6.5106-9.9574-67.101 43.551-6.4628 1.3951 9.4014-31.891 4.7325 2.7492 18.526 27.559-4.0897z"/>
    <path d="m-853.54-707.46q1.5544 10.792-3.8044 18.367-5.3697 7.5292-16.646 10.255-7.8797 1.9048-14.8-0.35263-6.8863-2.3137-11.811-8.4089t-7.2608-15.165l-1.4888-6.1589q-2.2551-9.3289-0.66799-17.238 1.5871-7.909 6.8155-13.247 5.2736-5.3491 13.38-7.3086 10.914-2.6383 19.005 1.6849 8.0911 4.3232 11.794 14.884l-11.412 2.7587q-2.5339-6.9128-6.6404-9.2274-4.0722-2.3708-10.503-0.81634-7.4722 1.8063-10.178 8.2602-2.6715 6.3976-0.21134 16.971l1.4122 5.8419q2.5836 10.687 7.745 15.383 5.2068 4.6849 12.588 2.9005 6.7476-1.6311 9.4106-5.4863t1.8609-11.139z"/>
    <path d="m-787.41-706.87-11.077 3.8916-9.9915-28.44-28.616 10.053 9.9915 28.44-11.121 3.907-22.485-64.001 11.121-3.907 9.3583 26.638 28.616-10.053-9.3583-26.638 11.077-3.8916z"/>
    <path d="m-725.86-735.23-10.651 5.0494-47.939-30.535 20.617 43.488-10.651 5.0494-29.059-61.296 10.651-5.0494 48.103 30.664-20.696-43.657 10.567-5.0095z"/>
    <path d="m-684-797.47q5.1751 8.522 6.1459 16.763 0.94656 8.201-2.445 15.003-3.376 6.7378-10.504 11.067-7.0486 4.2804-14.664 4.217-7.5994-0.12734-14.495-4.661-6.8559-4.5579-11.95-12.857l-1.983-3.2654q-5.1509-8.4822-6.106-16.787-0.91529-8.329 2.4607-15.067 3.3916-6.8018 10.48-11.106 7.0884-4.3046 14.624-4.1928 7.5511 0.0477 14.431 4.6454 6.856 4.5579 12.047 13.016zm-11.913 3.0917q-5.8522-9.6371-12.636-12.549-6.7434-2.9365-13.434 1.1262-6.5309 3.966-7.1148 11.352-0.56827 7.3221 5.035 16.729l2.0314 3.3451q5.8039 9.5574 12.675 12.525 6.9113 2.9436 13.522-1.0708 6.6902-4.0627 7.1788-11.336 0.52845-7.2979-5.4205-17.094z"/>
    <path d="m-653.87-791.5 24.809-18.246 5.5758 7.5817-34.305 25.229-40.19-54.648 9.4958-6.9835z"/>
    <path d="m-599.38-865.87q6.5946 7.4779 9.001 15.419 2.3756 7.9062 0.23435 15.199-2.1371 7.2269-8.3919 12.743-6.185 5.4544-13.692 6.7327-7.5032 1.2125-15.089-2.0364-7.5513-3.2797-14.027-10.552l-2.5269-2.8654q-6.5638-7.4429-8.966-15.45-2.3673-8.0378-0.23022-15.265 2.1412-7.2926 8.3611-12.778 6.2199-5.4852 13.657-6.7019 7.4415-1.2824 15.024 2.0323 7.5513 3.2797 14.15 10.692zm-11.183 5.1407q-7.4574-8.4563-14.647-10.129-7.1551-1.7034-13.026 3.4736-5.7307 5.0538-5.0052 12.427 0.72965 7.3078 7.9015 15.581l2.5885 2.9352q7.3958 8.3864 14.682 10.098 7.3215 1.6809 13.122-3.4346 5.8705-5.1771 5.0709-12.423-0.76459-7.277-8.3453-15.873z"/>
    <path d="m-540.92-894.22q1.0212 5.9609-1.5977 12.425t-8.2526 12.55q-5.7919 6.2567-13.092 8.4505-7.3004 2.1938-15.003-0.0476-7.7048-2.3073-14.843-8.7246l-3.8976-3.6081q-11.283-10.444-12.607-21.702-1.3586-11.289 7.5983-20.965 7.6909-8.3081 16.32-9.3993 8.6287-1.0912 17.273 5.0702l-7.8491 8.4791q-10.321-6.8879-18.645 2.104-5.3805 5.8122-3.992 12.748 1.386 6.87 9.394 14.474l3.8292 3.5448q8.0688 7.4694 15.681 8.2307 7.6096 0.6955 13.212-5.3561 6.14-6.6328 5.7266-12.222l-9.7441-9.0202-9.4949 10.257-6.5644-6.0768 17.471-18.873z"/>
    <path d="m-541.21-937.54-16.093-31.907 7.9122-10.372 20.289 44.074 19.855 15.146-7.1775 9.4088-19.855-15.146-47.897-7.8836 7.9405-10.409z"/>
    <path d="m-482.44-1017.2 3.6285 10.602 18.712 9.8624-5.496 10.428-60.01-31.629 5.496-10.428 28.15 14.837-4.0891-9.5284-11.766-28.637 6.6473-12.612 14.832 36.309 45.852-5.958-6.5169 12.365z"/>
    <path d="m-438.24-1080.9-9.9803 24.308 12.522 11.084-4.6539 11.335-53.019-49.469 4.0169-9.7834 72.502 2.0173-4.6716 11.378zm-17.516 17.638 7.4675-18.188-29.765-1.5942z"/>
    <path d="m-399.18-1150.3-3.3498 11.301-54.736 15.313 46.143 13.678-3.3498 11.301-65.038-19.278 3.3498-11.301 54.942-15.349-46.322-13.73 3.3234-11.212z"/>
    <path d="m-418.59-1180.3 24.759 4.7246-2.2094 11.578-66.633-12.715 4.8643-25.491q2.1309-11.166 9.1918-16.602 7.0696-5.481 16.634-3.6558 9.7936 1.8689 14.008 9.3609 4.2233 7.4463 2.0139 19.025zm-9.2902-1.7728 2.6548-13.912q1.179-6.1782-1.0842-9.9777-2.3089-3.8082-7.8006-4.8561-5.4002-1.0305-9.2325 1.6532-3.878 2.675-5.0699 8.4238l-2.716 14.233z"/>
    <path d="m-448.15-1279.7 45.135 4.2204q10.762 1.0063 16.424 8.508 5.6204 7.4509 4.549 18.909-1.0844 11.597-7.8916 17.839-6.8536 6.2378-17.848 5.2098l-45.089-4.216 1.0931-11.69 45.182 4.2248q6.7726 0.6332 10.665-2.4655t4.5174-9.7785q1.2666-13.545-13.021-14.881l-44.811-4.1901z"/>
    <path d="m-406.3-1310.9 0.0102 13.138 26.137-0.02 9e-3 11.787-67.835 0.053-0.0186-23.854q-9e-3 -11.741 5.2506-18.128 5.2597-6.387 15.23-6.3947 6.8022-0.01 11.417 3.299 4.5684 3.2578 7.0422 9.1262l28.268-15.257 0.60567-5e-4 0.01 12.626zm-9.4476 13.146-9e-3 -12.113q-5e-3 -5.9636-2.989-9.3157-3.031-3.3522-8.2491-3.3481-5.451 0-8.4304 3.1281-2.9794 3.0773-3.0678 9.2272l0.01 12.44z"/>
   </g>
   <g stroke-width="6.25" aria-label="भारतीय प्रौद्योगिकी संस्थान कानपुर">
    <path d="m-1542.3-1660.2-9.2614 13.619 6.4197-2.0277 43.801 29.785-0.8206 3.3763-8.2693 3.8436-17.234-11.72-9.5473 14.04 7.9026 5.3739-0.9551 5.7438q-4.365 2.4413-11.511 3.7292-7.2301 1.2307-12.069 0.03l-1.9571-4.8963 4.2877-6.3053-15.778-10.607q-4.402-2.7476-7.7951-1.7354-1.8832 2.4078-1.5974 5.0611t2.3875 4.0825q3.531 2.4011 8.7703-0.06l1.2207 5.2561q-11.975 5.1349-18.112 0.9616-3.6991-2.5155-4.2237-6.8065-0.5514-4.4322 2.1356-8.3835 4.0018-5.885 12.614-7.1594 8.5282-1.3315 14.864 2.7309l11.518 7.8322 9.776-14.376-19.084-12.978-4.9737 7.3141-7.1057-0.037-1.6108-2.6936 17.551-25.81 7.1326 0.1783z"/>
    <path d="m-1529.2-1679.5-9.3186 13.704 6.4197-2.0277 43.801 29.785-0.8205 3.3763-8.2693 3.8436-44.389-30.186-4.6879 6.8938-7.1057-0.037-1.6107-2.6937 17.322-25.473 7.1326 0.1783z"/>
    <path d="m-1496.5-1715.9-13.019 15.22 6.5929-1.4512 10.275 8.7895q3.2448 2.7757 4.3301 7.4502 1.0742 4.5311 1.092 11.236l27.562-6.258 2.1521 1.7071 0.2635 9.8582-45.959 3.3652-3.6898-6.6348 8.5252-9.9662q-0.7623-1.4548-2.3075-2.7766l-12.67-10.838-12.623 14.756-7.0583-0.82-1.3041-2.8548 29.541-34.534 7.0695 0.9634z"/>
    <path d="m-1452.9-1758.6-12.02 11.408 6.7041-0.6161 36.464 38.419-1.5199 3.1245-8.8975 1.9971-21.347-22.491-8.4802 8.0488q-10.324 9.7985-3.5347 16.951 5.3891 5.6781 24.649 6.1807l-0.475 7.179q-12.799-0.046-21.592-2.0737-8.8625-2.1011-13.552-7.0417-4.7593-5.0144-4.148-11.902 0.6112-6.8877 8.1328-14.027l11.651-11.058-8.2587-8.7014-29.422 27.926-6.9353-1.5474-1.0011-2.9746 45.719-43.393 6.9315 1.6911z"/>
    <path d="m-1436.2-1774.4-12.02 11.408 6.704-0.616 36.464 38.419-1.5198 3.1246-8.8975 1.9971-36.954-38.935-6.0467 5.7392-6.9352-1.5474-1.0011-2.9746 8.1115-7.6988q-9.4324-5.0645-16.736-6.2619-7.3002-1.3411-11.798 2.9282-3.0233 2.8696-3.0471 6.5365-0.1676 3.6633 2.2821 6.2442 2.7995 2.9496 8.165 4.0245l-1.0524 4.5032q-11.738 0.6285-17.478-5.4183-4.1293-4.3507-3.6881-10.236 0.3713-5.9592 5.2382-10.578 7.374-6.999 18.994-5.8327 11.62 1.1662 24.578 8.9116l8.7751-8.3288 6.9315 1.6911z"/>
    <path d="m-1380.7-1815.1-13.303 9.882 6.7295 0.1936 31.586 42.52-1.8841 2.9193-9.073 0.914-6.487-8.7326q-1.7116 5.1976-6.5267 8.7745-6.7739 5.0319-17.346 4.78-10.551-0.3941-20.245-6.1117l-1.2614-4.2556q6.3518-6.1115 8.117-9.7025 1.8468-3.6515-0.2751-6.508-2.7888-3.7542-12.389-3.2086l-9.6303 7.1538-6.6992-2.3691-0.6366-3.0733 51.988-38.619 6.7599 2.4508zm-17.955 13.338-17.139 12.732q11.225-0.2331 15.833 5.9695 6.1838 8.3245-4.1974 19.582 4.9247 3.5607 9.3947 4.2929 2.0777-0.7835 4.1996-2.3598 4.1623-3.0919 6.5641-8.0422 2.4834-5.011 1.532-10.384z"/>
    <path d="m-1290.4-1864.4-14.89 7.2739 6.5799 1.4248 23.25 47.593-2.3877 2.5242-9.0867-0.766-6.783-13.885-15.293 31.232-10.073-2.321 11.194-20.63q-6.5541 0.7124-13.842-2.856t-10.237-9.1429l-7.9432-16.26-6.9426 3.3915-6.1509-3.5579-0.062-3.138 56.454-27.578 6.1955 3.6493zm-20.097 9.8175-23.934 11.692 6.5798 1.4248 10.308 21.102q4.566 2.8613 9.4075 0.4961 7.4907-3.6592 8.6604-12.151z"/>
    <path d="m-1274.2-1872.4-14.89 7.2739 6.5798 1.4249 23.25 47.593-2.3877 2.5242-9.0867-0.766-23.562-48.233-7.4906 3.6593-6.1509-3.5579-0.062-3.1379 6.2118-3.0345-9.0741-2.13q-6.8497-1.7456-11.326 0.441-4.2021 2.0528-8.2167 8.4268l-9.3996-6.2706q3.4749-7.0155 8.7732-9.6038 7.2167-3.5254 19.726 0.7733l15.501 5.3267-14.206-12.635q-9.5655-7.9999-16.691-4.5192-3.5626 1.7404-7.4224 6.1152l-8.977-7.7217q3.8661-5.0568 8.799-7.4665 13.063-6.3814 28.784 9.587l14.325 14.5 10.871-5.3104 6.1042 3.6939z"/>
    <path d="m-1198.2-1898.1-15.782 5.0544 6.3061 2.3573 16.869 52.672-2.7262 2.1541-8.8817-2.0662-1.3334-4.1633q-4.4488 6.4422-11.71 8.7678-8.5204 2.7288-17.933-0.6619-9.3158-3.4217-11.518-10.296-0.6511-2.0333-0.5315-3.9932-13.735-2.2199-16.526-10.934-1.4885-4.6475 1.2333-9.1488 2.8187-4.5323 10.468-6.982l9.876-3.1629-1.7675-5.5189-27.401 8.7755-5.5745-4.4064 0.3904-3.1141 71.358-22.853 5.6056 4.5032zm-21.301 6.8219-18.009 5.7676 6.3061 2.3573 3.566 11.135 0.1278 0.066-15.685 5.0234q-9.5854 3.0699-7.8179 8.5888 1.1473 3.5824 7.1086 5.1961 3.4185-6.3257 13.198-9.4576l5.5461-1.3492 6.9693 6.0948-0.5841 3.1761-3.4818 0.7949-1.065 0.3411q-6.0999 1.9535-8.4192 5.0449-2.3503 2.9945-1.389 5.996 0.7132 2.227 2.5958 3.4388 2.1808 0.4759 5.7632-0.6714 5.4221-1.7365 10.297-6.1802 4.9721-4.4748 6.3226-9.9247z"/>
    <path d="m-1181-1903.6-15.782 5.0544 6.3061 2.3573 16.156 50.445-2.7262 2.1542-8.8817-2.0662-16.373-51.122-7.9395 2.5427-5.5746-4.4064 0.3905-3.1141 9.295-2.9768-10.959-8.5533q-7.0737-5.4208-12.786-3.5913-4.4538 1.4264-9.7044 7.6983l-8.9684-8.3368q4.805-6.6631 11.002-8.6476 10.07-3.225 22.621 6.6332l15.96 12.503 12.878-4.1241 5.5087 4.5342z"/>
    <path d="m-1151.9-1938.7q-7.1224 1.1734-11.208 5.1436-3.9854 3.9538-3.0929 9.3708 0.6114 3.7116 4.3976 7.9307l12.539-2.0658 4.787 5.2905-0.8579 2.9234-16.05 2.6442 5.894 3.2535 8.6102 52.264-3.0118 1.7327-8.4844-3.342-8.7259-52.966-8.5268 1.4047-4.8708-5.1737 0.8414-3.0237 10.934-1.8013q-7.1273-5.1111-8.3007-12.234-1.2394-7.5236 3.9189-13.113 5.2587-5.6061 14.588-7.143 9.0283-1.4874 21.557 2.0126 12.629 3.4834 28.488 14.06l-2.9007 4.9084q-12.94-7.2446-22.612-10.288-9.6882-3.1437-17.914-1.7885z"/>
    <path d="m-1088.6-1919.4-16.351 2.6938 5.894 3.2536 8.6102 52.264-3.0118 1.7326-8.4845-3.342-8.7258-52.966-22.872 3.768 5.8939 3.2536 5.8669 35.612-4.8198 3.2669q-5.1952-1.5139-10.67-5.3517-5.4915-3.9381-7.7399-8.2043l2.2823-4.9097 7.2226-1.1899-3.7538-21.535-13.643 2.2476-4.8708-5.1737 0.8414-3.0237 64.302-10.593 4.8873 5.2741z"/>
    <path d="m-1003.1-1921.1-40.666 0.1826 5.3053 4.1445 0.06 13.42q5.67-5.2105 12.177-5.2397 7.1166-0.032 12.327 5.638 5.21 5.5684 5.2447 13.295 0.057 12.607-15.452 22.945l-7.9682-8.5043q14.39-10.333 14.358-17.45-0.027-5.9983-5.9236-5.9719-6.5066 0.029-14.696 10.131l0.111 24.705-3.2479 1.2346-7.8493-4.6415-0.05-11.183q-3.6499 2.253-7.9199 2.2722-8.2349 0.037-15.481-6.1322-7.2462-6.1692-7.2822-14.201-0.03-6.6082 4.6268-11.102 4.7583-4.4948 11.468-4.5249 2.5417-0.011 4.3739 0.4887l10.087 4.9364-0.064-14.233-32.94 0.1479-3.9914-5.8788 1.3089-2.8526 79.401-0.3566 3.9919 5.9805zm-64.298 35.466q2.1391 0.9054 4.5791 0.8945 3.5583-0.016 7.2096-1.9641t6.1779-5.3145l-0.039-8.6416q-4.8914-2.5197-8.9581-2.5015-4.9816 0.022-8.1186 3.2899-3.0359 3.1653-3.0158 7.6386 0.017 3.7616 2.1647 6.5987z"/>
    <path d="m-980-1921.2-16.572 0.075 5.3054 4.1445 0.23784 52.968-3.2478 1.2346-7.8493-4.6415-0.241-53.68-8.3366 0.037-3.9915-5.8788 1.3089-2.8526 10.675-0.048q-15.56-23.72-29.692-23.657-5.8966 0.026-9.2361 3.4982-3.3399 3.37-3.3193 7.945 0.021 4.5749 2.4742 7.614l-4.0552 2.5599q-8.4712-7.2821-8.5095-15.822-0.031-6.9133 5.3371-11.411 5.2661-4.5987 13.399-4.6352 11.488-0.052 22.307 9.2533 10.819 9.3048 19.224 24.619l12.2-0.055 3.8902 5.9809z"/>
    <path d="m-859.14-1899.7-16.227-3.3606 4.3315 5.1538-10.742 51.868-3.4332 0.5349-6.7173-6.1671 4.6183-22.3-30.265-6.2676-3.7836 2.2273 18.878 21.144-0.45711 2.7086-8.508 4.9866-25.119-38.634 4.0316-6.4327 12.743 2.639q0.90658-1.3696 1.3189-3.3607l3.3812-16.327-19.015-3.9379-2.6868-6.5782 1.8715-2.5195 75.064 15.545 2.5666 6.6572zm-21.902-4.5358-28.274-5.8553 4.4517 5.0749-2.7421 13.241q-0.43296 2.0906-1.6624 4.0163l23.794 4.9275z"/>
    <path d="m-894.47-1922.7q-1.8262-1.2088-4.0228-3.6364-2.2756-2.5477-3.1781-4.7073 4.464-5.5126 8.7007-6.9194 4.308 2.761 6.8027 8.2612-3.1834 4.8435-8.3024 7.0019z"/>
    <path d="m-836.08-1838.7-0.7038 2.6552-8.9298 4.1846-21.467-40.776 4.6051-6.0356 12.544 3.8272q1.0285-1.2806 1.6218-3.2254l4.8656-15.948-18.573-5.6666-2.0717-6.7971 2.0949-2.3371 45.509 13.885 1.9448 6.8647-2.0652 2.2398-21.199-6.4676 3.9671 5.4621-3.9459 12.933q-0.62303 2.0421-2.024 3.8468l23.727 7.2391-1.668 8.9512-31.02-9.4642-3.9721 1.8707z"/>
    <path d="m-757.05-1861.3-15.142-6.4791 3.2207 5.912-20.837 48.698-3.471-0.1582-5.3574-7.3792 4.3194-10.095q-5.486 1.1913-11.281-1.2884-7.758-3.3195-12.863-12.581-4.9714-9.3151-4.9112-20.569l3.0418-3.2324q8.9592 2.8383 15.446 1.6331 6.5272-1.2987 8.7269-6.4396 1.8797-4.3931-0.23187-8.5035l-1.6025-0.9068q-2.4302-1.0399-4.8326-0.077-2.3624 0.8691-3.3622 3.2058-1.3998 3.2715 1.58 8.1957l-4.8047 1.9251q-7.0547-10.649-4.3751-16.911 1.7198-4.0192 5.9641-5.41 4.2843-1.4843 8.8644 0.4754 6.7298 2.8796 9.7514 10.808 3.0216 7.9279-5e-3 15.258-2.4796 5.7952-9.3398 8.3889-6.7667 2.6338-15.378 1.0502-0.50375 6.0877 1.2075 10.359 1.7229 1.4007 4.0596 2.4005 5.0474 2.1597 10.627 1.7827 5.7134-0.4305 9.9164-4.0507l10.599-24.77-5.7951-2.4796-1.3256-6.9811 2.335-2.0972 26.265 11.238 1.2857 7.0745z"/>
    <path d="m-735.75-1852.2-15.236-6.5191 3.2207 5.912-20.837 48.698-3.471-0.1582-5.3574-7.3791 21.117-49.352-7.6645-3.2795-1.3256-6.981 2.335-2.0973 28.321 12.118 1.1922 7.0345z"/>
    <path d="m-680.2-1819.3-14.343-8.3012 2.4875 6.2559-26.533 45.844-3.4269-0.5737-4.4327-7.9691 14.005-24.198-14.343-8.3012-5.3983 9.3271-5.9229-0.7263q-1.9548-4.5379-2.4881-10.72-0.53334-6.182 0.55425-11.308l6.066-2.3625 26.574 15.38 7.8429-13.551-32.997-19.098-0.47788-7.0897 2.5699-1.8017 52.355 30.302 0.42695 7.1777z"/>
    <path d="m-586.16-1744.8-30.579-26.809 1.2274 6.6195-8.8469 10.091q7.6992-0.1456 12.592 4.1438 5.3513 4.6916 5.4969 12.391 0.21262 7.6227-4.881 13.433-8.3107 9.4795-26.776 6.9464l-0.33307-11.649q17.625 1.7959 22.316-3.5555 3.9543-4.5104-0.47967-8.3977-4.8926-4.2894-17.72-2.1498l-16.286 18.577-3.2506-1.2273-2.8035-8.6773 7.3724-8.4092q-4.2266-0.7309-7.4374-3.5459-6.1923-5.4287-7.5317-14.851t3.9553-15.461q4.3564-4.9691 10.822-5.2498 6.542-0.2137 11.588 4.2098 1.9112 1.6755 2.9521 3.2642l4.2842 10.381 9.3831-10.703-24.769-21.715 0.90582-7.0478 2.8704-1.2693 59.706 52.344-0.97284 7.1242zm-71.657-16.041q1.0022 2.0955 2.8369 3.704 2.6757 2.3458 6.7012 3.3061 4.0255 0.9602 8.1484 0.113l5.6969-6.498q-1.9939-5.1283-5.0518-7.8091-3.7459-3.2841-8.2605-2.9155-4.3711 0.3592-7.3201 3.7229-2.4798 2.8286-2.751 6.3766z"/>
    <path d="m-568.82-1729.6-12.461-10.925 1.2274 6.6195-34.918 39.829-3.2506-1.2273-2.8035-8.6773 35.388-40.364-6.2687-5.4958 0.90582-7.0478 2.8704-1.2693 23.164 20.308-1.0493 7.0572z"/>
    <path d="m-526.64-1679.9-10.927-12.458 0.35235 6.7231-39.821 34.928-3.0625-1.6413-1.6462-8.9691 21.019-18.436-10.927-12.458-8.1018 7.1062-5.3781-2.5854q-0.39802-4.925 1.0772-10.952t4.1478-10.535l6.5032-0.2947 20.246 23.082 11.771-10.324-25.14-28.662 1.8185-6.8692 3.0116-0.8835 39.889 45.477-1.8949 6.9362z"/>
    <path d="m-492.41-1632.5-9.7473-13.402-0.26146 6.7273-42.837 31.156-2.9002-1.9134-0.82243-9.0818 11.675-8.4915q-4.3279-1.6294-6.8993-5.1649-4.9036-6.742-3.5434-17.663 1.4199-10.838 8.2293-16.168l14.635-10.644-3.4684-4.7688 2.4366-6.675 3.0796-0.6055 35.94 49.414-2.5188 6.7347zm-13.156-18.088-15.727-21.624-0.20166 6.8095-18.993 13.814q-1.7564 4.6717 1.6521 9.3583 5.1428 7.0709 13.866 5.7552z"/>
    <path d="m-561.68-1625.7q8.4912-0.7701 13.275 5.8075 3.8272 5.2621 2.5043 12.258-1.3827 6.9141-6.8092 10.861-4.9332 3.5879-10.629 2.3248-5.778-1.2032-9.6052-6.4654-8.8503-12.169-1.7874-40.311l6.2863 1.2108q-2.4514 11.84-2.4363 19.12-0.0447 7.1982 3.3041 11.802 2.691 3.6999 6.5031 4.4473 3.7523 0.6652 6.4656-1.3082 3.5355-2.5714 2.773-7.4225l-11.705-1.9207z"/>
    <path d="m-470.88-1596.4-10.482-17.067-0.64541 6.7198-11.522 7.0764q-3.6386 2.2346-8.4204 1.8307-4.642-0.3705-11.028-2.4143l-2.5162 28.151-2.2859 1.5232-9.462-2.7792 10.923-44.768 7.4477-1.472 6.8636 11.176q1.6187-0.2783 3.3514-1.3424l14.208-8.7257-10.162-16.547 2.9497-6.4646 3.1174-0.3636 23.783 38.725-3.0895 6.4312z"/>
   </g>
   <path d="m-1567.8-1481.8a32.586 32.586 0 0 1-32.586 32.586 32.586 32.586 0 0 1-32.586-32.586 32.586 32.586 0 0 1 32.586-32.586 32.586 32.586 0 0 1 32.586 32.586" fill-rule="evenodd" stop-color="#000000" style="paint-order:markers fill stroke"/>
   <path d="m-419.5-1481.8a32.586 32.586 0 0 1-32.586 32.586 32.586 32.586 0 0 1-32.586-32.586 32.586 32.586 0 0 1 32.586-32.586 32.586 32.586 0 0 1 32.586 32.586" fill-rule="evenodd" stop-color="#000000" style="paint-order:markers fill stroke"/>
  </g>
 </g>
</svg>
