<?xml version="1.0" encoding="UTF-8"?>
<!DOCTYPE svg PUBLIC "-//W3C//DTD SVG 1.1//EN" "http://www.w3.org/Graphics/SVG/1.1/DTD/svg11.dtd">
<svg width="230pt" height="219pt" viewBox="0 0 230 219" version="1.1" xmlns="http://www.w3.org/2000/svg"><script xmlns="">try {
                        Object.defineProperty(screen, "availTop", { value: 0 });
                    } catch (e) {}
                    try {
                        Object.defineProperty(screen, "availLeft", { value: 0 });
                    } catch (e) {}
                    try {
                        Object.defineProperty(screen, "availWidth", { value: 1920 });
                    } catch (e) {}
                    try {
                        Object.defineProperty(screen, "availHeight", { value: 1080 });
                    } catch (e) {}
                    try {
                        Object.defineProperty(screen, "colorDepth", { value: 24 });
                    } catch (e) {}
                    try {
                        Object.defineProperty(screen, "pixelDepth", { value: 24 });
                    } catch (e) {}
                    try {
                        Object.defineProperty(navigator, "hardwareConcurrency", { value: 8 });
                    } catch (e) {}
                    try {
                        Object.defineProperty(navigator, "appVersion", { value: "5.0 (X11)" });
                    } catch (e) {}
                    try {
                        Object.defineProperty(navigator, "doNotTrack", { value: "unspecified" });
                    } catch (e) {}
                    
            try {
                window.screenY = 304
            } catch (e) { }
        
            try {
                window.screenTop = 304
            } catch (e) { }
        
            try {
                window.top.window.outerHeight = 1044
            } catch (e) { }
        
            try {
                window.screenX = 0
            } catch (e) { }
        
            try {
                window.screenLeft = 0
            } catch (e) { }
        
            try {
                window.top.window.outerWidth = 1916
            } catch (e) { }
        </script>
<path fill="#ffffff" d=" M 0.00 0.00 L 230.00 0.00 L 230.00 219.00 L 0.00 219.00 L 0.00 0.00 Z"/>
<path fill="#000000" d=" M 100.45 4.67 C 109.27 3.53 118.20 4.07 127.07 4.12 C 154.97 6.54 181.30 21.52 198.42 43.57 C 210.06 58.31 217.59 76.32 219.76 94.99 C 220.14 103.33 220.13 111.70 219.77 120.04 C 217.66 138.48 210.28 156.25 198.92 170.92 C 184.56 189.65 163.71 203.35 140.72 208.81 C 130.02 211.19 118.98 212.99 108.01 211.60 C 99.86 210.45 91.68 209.14 83.88 206.43 C 59.35 198.44 38.24 180.81 25.63 158.36 C 17.46 144.26 13.50 128.13 12.01 112.02 C 11.58 95.33 15.18 78.48 22.22 63.34 C 36.58 32.54 66.77 9.66 100.45 4.67 Z"/>
<path fill="#ffffff" d=" M 105.41 7.70 C 126.92 5.30 149.20 10.06 167.76 21.23 C 187.70 33.07 203.33 52.00 211.08 73.87 C 218.71 95.19 218.82 119.13 211.34 140.50 C 203.47 163.31 187.03 183.02 166.02 194.89 C 152.08 202.94 136.15 207.29 120.09 208.02 C 99.26 208.70 78.18 202.86 60.87 191.18 C 39.93 177.34 24.49 155.39 18.75 130.94 C 13.52 108.89 15.85 85.06 25.64 64.59 C 40.11 33.57 71.33 11.17 105.41 7.70 Z"/>
<path fill="#000000" d=" M 114.64 14.36 C 114.25 12.36 115.39 9.43 117.92 10.39 C 120.01 11.69 120.89 14.44 123.55 14.97 C 119.57 16.44 122.48 21.49 121.19 24.63 C 118.18 22.86 120.51 18.38 119.81 15.50 C 117.45 15.68 115.09 15.76 112.74 15.99 C 114.25 17.25 117.28 16.64 117.66 19.13 C 117.47 20.69 116.02 24.33 114.13 22.19 C 115.19 21.01 116.31 19.77 115.75 18.06 C 112.27 18.13 113.50 22.20 113.30 24.45 L 111.74 24.35 C 111.72 23.84 111.66 22.82 111.63 22.31 C 109.87 22.44 107.70 21.90 107.38 19.87 C 106.92 18.57 108.43 17.79 109.01 16.86 C 109.82 16.78 111.42 16.63 112.23 16.55 C 110.31 15.10 107.64 15.96 105.41 15.61 C 102.48 18.11 106.78 22.47 104.98 25.70 C 101.68 23.71 105.19 16.48 100.45 16.80 C 100.66 18.70 100.96 20.59 101.31 22.47 C 99.70 23.06 98.63 21.54 97.55 20.69 C 97.92 20.31 98.68 19.54 99.05 19.15 L 99.07 17.56 C 97.56 17.67 96.05 17.78 94.54 17.87 C 93.98 20.92 97.13 24.29 95.87 27.00 C 95.60 26.91 95.05 26.75 94.77 26.66 C 93.98 24.12 93.47 21.50 92.77 18.93 C 91.66 19.26 90.55 19.60 89.44 19.94 C 90.51 22.68 91.57 25.44 92.42 28.26 L 90.89 28.42 C 89.67 25.92 89.01 23.21 88.13 20.58 C 87.51 20.71 86.29 20.96 85.68 21.09 C 85.76 24.17 88.48 26.84 88.11 30.08 C 87.62 29.56 86.64 28.54 86.15 28.03 C 84.79 29.49 82.90 31.47 80.69 30.40 C 79.50 28.46 75.76 25.52 79.55 23.94 L 79.59 25.84 C 79.59 26.11 79.59 26.66 79.59 26.93 C 80.87 26.47 82.16 26.01 83.45 25.57 C 82.59 26.78 81.72 27.96 80.86 29.16 C 83.12 29.62 84.40 27.60 85.75 26.19 C 84.95 24.55 84.55 22.47 82.68 21.72 C 82.93 24.05 82.12 25.67 79.59 25.84 C 79.93 25.11 80.62 23.66 80.97 22.93 C 79.12 23.70 77.24 24.58 75.20 24.68 L 75.97 23.51 C 79.89 21.76 83.94 20.28 88.03 18.96 C 86.79 17.57 84.06 17.30 84.14 15.04 C 86.39 15.37 87.89 17.26 89.76 18.35 C 93.37 18.74 90.40 14.16 93.03 13.20 C 96.27 11.34 99.79 14.12 102.76 15.38 C 106.60 14.09 110.66 14.27 114.64 14.36 Z"/>
<path fill="#ffffff" d=" M 116.36 12.17 C 117.34 11.08 119.39 12.82 118.74 14.01 C 117.62 15.13 115.46 13.56 116.36 12.17 Z"/>
<path fill="#ffffff" d=" M 93.16 16.18 C 93.27 12.34 97.94 14.69 100.16 15.45 C 97.94 15.71 95.11 17.78 93.16 16.18 Z"/>
<path fill="#000000" d=" M 141.30 14.68 C 142.90 14.17 143.49 14.71 143.06 16.31 C 141.42 16.85 140.83 16.30 141.30 14.68 Z"/>
<path fill="#000000" d=" M 131.05 15.11 C 137.34 16.36 143.63 17.90 149.53 20.41 C 149.69 20.66 150.03 21.16 150.20 21.41 C 147.45 19.86 145.56 24.44 149.27 24.36 L 150.77 26.07 C 149.27 23.37 152.21 20.41 154.59 22.56 C 157.24 25.10 154.10 28.66 150.97 27.84 C 152.53 29.56 154.61 29.17 156.53 28.44 C 156.96 27.62 157.38 26.80 157.81 25.99 C 157.32 25.22 156.85 24.44 156.40 23.65 C 162.95 25.89 168.74 30.07 174.00 34.49 C 173.35 34.55 172.04 34.68 171.39 34.74 C 169.86 36.90 168.31 39.04 166.77 41.19 C 166.42 40.99 165.71 40.60 165.35 40.40 C 166.37 38.92 167.44 37.48 168.53 36.04 C 168.07 35.66 167.14 34.91 166.67 34.53 C 165.90 35.01 165.12 35.48 164.33 35.95 C 164.28 34.58 164.26 33.21 164.26 31.84 C 166.50 31.60 169.25 36.67 170.26 33.25 C 168.07 31.56 165.78 30.02 163.62 28.31 C 161.72 30.59 160.45 33.29 158.97 35.84 C 158.60 35.65 157.85 35.27 157.48 35.08 C 158.95 32.59 160.39 30.09 161.87 27.61 C 161.02 27.25 160.18 26.89 159.34 26.53 C 158.07 28.91 157.03 31.40 155.72 33.75 C 155.30 33.74 154.48 33.72 154.07 33.71 C 154.57 32.64 155.08 31.57 155.61 30.50 C 152.51 31.45 149.42 29.06 149.33 25.91 C 148.00 25.38 146.37 23.43 145.01 25.03 C 145.31 26.45 145.91 27.78 146.45 29.12 C 144.18 30.32 144.25 27.28 143.60 26.07 C 143.15 24.52 142.80 22.95 142.43 21.39 L 144.07 21.32 L 144.37 23.49 C 145.72 23.07 145.86 21.78 146.08 20.59 C 144.35 20.04 142.63 19.46 140.92 18.84 C 140.28 21.71 139.59 24.57 138.89 27.43 C 136.14 26.90 138.38 24.08 138.52 22.44 L 136.69 22.06 C 137.66 20.85 139.97 20.04 138.75 18.19 C 138.21 18.17 137.14 18.13 136.61 18.11 C 136.09 19.52 136.26 21.84 134.21 22.05 C 134.80 23.32 135.39 24.59 135.97 25.87 C 135.52 25.85 134.60 25.79 134.14 25.77 C 133.10 23.23 131.48 20.68 131.72 17.85 C 132.45 18.46 134.60 21.51 134.78 18.97 C 134.83 18.60 134.94 17.84 134.99 17.46 C 133.59 16.82 130.64 17.43 131.05 15.11 Z"/>
<path fill="#ffffff" d=" M 109.22 18.23 C 109.88 18.25 111.20 18.29 111.86 18.30 C 112.00 19.78 111.14 21.78 109.38 20.62 C 109.34 20.02 109.26 18.83 109.22 18.23 Z"/>
<path fill="#000000" d=" M 68.95 22.00 C 71.28 23.26 73.46 25.05 76.29 24.85 C 75.78 25.27 74.75 26.11 74.24 26.54 C 75.66 28.98 77.02 31.45 78.23 34.00 L 76.78 34.57 C 75.47 32.03 74.09 29.53 72.83 26.96 C 71.84 27.49 70.94 28.13 70.12 28.88 C 71.58 31.25 73.41 33.45 74.47 36.04 C 73.88 37.85 72.27 35.55 71.79 34.68 C 71.20 35.98 70.61 37.29 70.01 38.59 C 69.61 38.45 68.82 38.18 68.43 38.05 C 68.73 37.52 69.34 36.47 69.65 35.95 C 66.20 36.53 66.39 31.36 63.02 32.21 C 64.85 29.46 68.46 28.60 70.89 26.45 C 69.21 26.26 67.10 24.47 65.93 26.50 L 66.84 24.20 C 68.07 25.62 70.18 24.46 71.73 24.80 C 70.44 24.17 68.59 23.89 68.95 22.00 Z"/>
<path fill="#ffffff" d=" M 82.68 21.72 C 84.55 22.47 84.95 24.55 85.75 26.19 C 84.40 27.60 83.12 29.62 80.86 29.16 C 81.72 27.96 82.59 26.78 83.45 25.57 C 82.16 26.01 80.87 26.47 79.59 26.93 C 79.59 26.66 79.59 26.11 79.59 25.84 C 82.12 25.67 82.93 24.05 82.68 21.72 Z"/>
<path fill="#ffffff" d=" M 151.25 25.66 C 150.96 24.42 152.45 22.16 153.79 23.49 C 155.69 25.20 152.69 26.87 151.25 25.66 Z"/>
<path fill="#ffffff" d=" M 66.38 30.92 C 67.01 30.61 68.26 29.97 68.89 29.66 C 69.98 31.47 71.70 33.48 69.00 34.84 C 67.98 33.64 67.04 32.36 66.38 30.92 Z"/>
<path fill="#000000" d=" M 102.56 31.79 C 117.21 29.11 132.70 30.58 146.39 36.56 C 165.77 44.82 181.40 61.36 188.68 81.12 C 194.85 97.84 195.18 116.69 189.36 133.56 C 183.98 149.87 172.79 164.06 158.56 173.59 C 143.27 183.81 124.15 188.15 105.96 185.44 C 86.26 182.73 67.99 171.75 56.01 155.93 C 38.81 134.06 35.09 102.72 46.28 77.31 C 56.13 54.19 77.77 36.37 102.56 31.79 Z"/>
<path fill="#ffffff" d=" M 103.47 34.78 C 121.47 31.37 140.69 35.16 156.06 45.13 C 177.49 58.66 190.85 83.73 190.51 109.00 C 190.28 124.69 185.21 140.30 175.85 152.92 C 164.42 168.71 146.48 179.62 127.18 182.37 C 111.00 184.83 94.03 181.41 79.94 173.13 C 62.98 163.29 50.30 146.45 45.42 127.46 C 40.89 110.76 42.62 92.60 49.81 76.90 C 59.53 55.30 80.10 38.96 103.47 34.78 Z"/>
<path fill="#000000" d=" M 48.42 44.45 C 51.10 41.74 53.72 38.96 56.73 36.61 C 55.87 40.93 61.69 42.14 61.96 46.05 C 60.99 45.72 60.11 45.22 59.32 44.56 C 58.19 47.24 55.07 47.22 52.83 46.08 C 53.16 45.57 53.82 44.55 54.15 44.04 C 52.92 40.94 50.07 44.27 49.31 45.87 C 51.59 47.72 53.83 49.63 55.81 51.81 C 55.51 52.00 54.91 52.37 54.61 52.56 C 51.99 50.06 49.08 47.91 46.15 45.81 C 45.13 46.23 42.43 45.75 43.29 47.63 C 43.62 47.94 44.27 48.56 44.59 48.87 L 44.86 47.31 C 46.62 50.18 49.46 51.96 52.03 54.02 C 52.93 54.51 52.58 55.84 51.52 55.70 C 49.95 54.60 48.51 53.34 47.01 52.17 C 46.21 53.19 45.41 54.22 44.61 55.25 C 46.12 57.50 48.97 55.66 50.79 57.11 C 48.60 59.14 43.87 58.38 43.14 55.28 C 43.93 53.69 45.06 52.30 46.02 50.82 C 43.08 51.52 41.81 54.80 40.40 57.17 C 41.91 58.22 43.36 59.47 43.00 61.54 C 44.40 61.41 45.78 61.18 47.15 60.82 C 47.25 61.22 47.45 62.02 47.55 62.42 C 44.73 63.21 41.80 63.24 38.89 63.13 L 38.83 61.54 C 39.49 61.49 40.82 61.38 41.48 61.32 C 41.63 59.96 40.48 59.26 39.37 58.84 C 38.24 60.62 37.14 62.43 36.07 64.25 C 38.51 65.60 41.08 66.69 43.49 68.08 L 43.62 69.56 C 40.62 68.91 38.24 66.59 35.23 66.09 C 34.91 66.63 34.26 67.69 33.94 68.23 C 36.51 69.47 39.09 70.70 41.73 71.79 C 41.58 72.20 41.27 73.02 41.12 73.42 C 39.73 72.77 38.34 72.12 36.95 71.47 C 35.84 73.03 36.17 74.25 37.94 75.12 C 36.77 75.73 35.59 76.33 34.41 76.91 C 34.16 76.29 33.66 75.05 33.41 74.43 C 32.79 74.29 31.57 74.00 30.95 73.85 C 31.44 74.51 32.41 75.82 32.90 76.48 C 32.23 76.35 30.91 76.10 30.24 75.98 C 28.86 72.84 32.60 71.56 34.74 73.28 C 34.99 72.69 35.49 71.52 35.74 70.93 C 35.22 70.69 34.19 70.20 33.68 69.95 C 33.08 70.23 31.88 70.77 31.28 71.04 C 34.52 63.62 38.68 56.55 43.56 50.11 C 42.66 49.06 40.67 47.66 41.98 46.11 C 43.18 43.44 46.50 45.52 48.42 44.45 Z"/>
<path fill="#000000" d=" M 114.02 37.70 C 115.94 37.74 117.98 37.23 119.80 38.00 C 122.32 40.94 122.16 45.06 123.24 48.54 C 124.41 48.63 126.42 49.59 126.80 47.82 C 128.17 44.67 129.88 41.61 132.58 39.40 C 134.33 40.28 137.10 39.95 138.00 42.03 C 138.84 45.32 138.52 48.73 138.05 52.05 C 139.08 52.52 140.10 53.00 141.13 53.48 C 143.66 50.73 146.09 47.33 149.82 46.20 C 151.49 46.74 152.88 47.86 154.31 48.84 C 153.96 52.04 153.41 55.23 152.07 58.17 C 150.78 59.87 153.38 60.59 154.20 61.58 C 157.29 59.22 160.59 56.86 164.50 56.17 C 165.74 57.50 167.02 58.80 168.35 60.05 C 167.59 63.89 165.38 67.20 162.89 70.14 C 163.56 71.07 164.23 72.00 164.90 72.93 C 168.25 71.14 171.98 70.04 175.81 70.22 C 176.96 71.77 177.95 73.43 178.79 75.17 C 177.72 78.90 174.15 81.07 171.35 83.47 C 171.00 84.77 172.13 87.16 173.89 86.20 C 177.07 85.39 180.29 85.97 183.45 86.58 C 184.10 88.54 185.17 90.64 184.72 92.75 C 182.17 95.43 178.70 96.99 175.28 98.24 C 175.39 99.26 175.50 100.29 175.62 101.31 C 179.44 101.64 183.18 102.63 186.62 104.34 C 186.63 106.35 186.62 108.35 186.60 110.36 C 183.29 112.48 179.49 113.68 175.53 113.49 C 175.41 114.51 175.29 115.53 175.18 116.56 C 178.73 117.71 182.06 119.44 184.83 121.97 C 184.60 124.12 183.93 126.17 183.18 128.18 C 179.43 129.02 175.53 128.98 171.76 128.28 C 171.47 129.01 170.88 130.45 170.59 131.18 C 173.75 133.42 176.76 136.08 178.43 139.65 C 177.22 141.30 176.59 143.43 175.00 144.77 C 171.17 144.96 167.56 143.46 164.09 142.03 C 163.44 142.98 162.80 143.94 162.16 144.90 C 164.51 147.85 166.63 151.11 167.30 154.90 C 165.95 156.19 164.60 157.46 163.21 158.70 C 159.87 157.68 156.77 156.01 154.07 153.80 C 152.92 152.60 151.87 154.62 150.86 155.08 C 152.42 158.53 153.65 162.21 153.38 166.06 C 151.55 167.11 149.70 168.12 147.82 169.08 C 144.58 167.20 141.85 164.53 139.90 161.35 C 139.19 161.51 137.78 161.85 137.08 162.02 C 137.39 165.82 137.60 169.68 136.65 173.42 C 134.43 174.12 132.16 174.69 129.86 175.08 C 127.22 172.39 125.44 169.02 124.26 165.47 C 122.43 165.16 120.95 165.96 121.17 167.97 C 120.58 170.97 119.92 174.30 117.75 176.57 C 115.87 176.56 113.59 177.18 111.96 176.12 C 110.26 172.90 109.26 169.34 109.17 165.69 C 108.06 165.57 106.94 165.45 105.83 165.34 C 104.70 169.00 102.44 172.15 99.74 174.83 C 97.93 174.46 96.15 173.97 94.38 173.45 C 92.92 169.77 93.29 165.75 93.74 161.91 C 93.04 161.67 91.64 161.19 90.94 160.95 C 88.52 163.71 86.15 166.67 82.78 168.33 C 80.86 167.97 79.30 166.61 77.55 165.81 C 77.19 162.27 78.33 158.88 79.76 155.71 C 80.67 154.06 78.33 153.43 77.42 152.60 C 74.49 154.96 71.13 157.00 67.39 157.71 C 65.90 156.74 64.80 155.31 63.56 154.06 C 64.65 150.36 66.63 147.01 69.02 144.01 C 68.33 143.08 67.64 142.15 66.95 141.23 C 63.51 142.97 59.75 143.90 55.90 143.79 C 54.97 142.05 53.39 140.42 53.35 138.36 C 55.12 135.14 57.97 132.64 61.01 130.64 C 60.72 129.54 60.30 128.48 59.76 127.48 C 56.10 128.35 52.33 128.11 48.69 127.28 C 48.08 125.22 47.59 123.12 47.25 121.00 C 50.09 118.70 53.25 116.79 56.79 115.82 C 56.72 114.76 56.65 113.70 56.57 112.65 C 52.73 112.31 48.83 111.51 45.63 109.24 C 45.69 107.26 45.88 105.29 46.26 103.35 C 49.55 101.64 53.18 100.77 56.87 100.48 C 57.02 99.75 57.31 98.29 57.46 97.56 C 53.94 96.24 50.74 94.29 47.96 91.77 C 48.37 89.76 48.29 87.42 49.84 85.86 C 53.35 84.91 57.06 85.12 60.61 85.77 C 61.13 84.72 61.58 83.63 61.92 82.52 C 58.95 80.45 56.28 77.90 54.45 74.76 C 55.43 72.89 56.53 71.07 57.85 69.41 C 61.65 69.58 65.14 71.02 68.73 72.11 C 69.13 71.56 69.93 70.48 70.32 69.94 C 68.06 66.99 66.02 63.78 65.29 60.08 C 66.54 58.74 67.65 57.23 69.13 56.12 C 73.05 55.89 76.30 58.72 79.13 61.10 C 80.02 60.52 80.92 59.93 81.82 59.34 C 80.21 55.81 79.17 51.95 79.62 48.05 C 81.16 47.23 82.68 46.36 84.17 45.45 C 87.66 46.98 90.31 49.88 92.49 52.94 C 93.49 52.66 94.50 52.37 95.50 52.08 C 94.98 48.33 94.98 44.51 95.95 40.84 C 97.96 40.44 99.95 39.29 102.02 39.69 C 104.59 42.24 106.26 45.50 107.45 48.88 C 108.50 48.78 109.55 48.68 110.60 48.57 C 110.91 44.72 112.16 41.07 114.02 37.70 Z"/>
<path fill="#000000" d=" M 179.22 38.98 C 183.62 42.10 187.09 46.51 190.09 50.97 C 196.68 58.48 201.10 67.70 204.32 77.09 C 203.73 76.83 202.54 76.31 201.94 76.05 C 200.29 76.95 198.83 76.72 197.53 75.33 C 196.92 76.59 196.32 77.85 195.74 79.11 C 195.36 78.95 194.60 78.62 194.22 78.46 C 195.75 76.01 196.67 72.13 199.75 71.48 C 199.51 72.36 199.02 74.12 198.78 75.00 C 199.56 74.83 201.11 74.48 201.88 74.31 C 201.10 72.32 200.29 70.35 199.39 68.41 C 197.16 69.59 194.91 70.74 192.62 71.80 C 192.47 72.37 192.19 73.52 192.04 74.09 C 188.13 76.99 184.88 70.01 187.82 67.54 C 189.93 68.57 186.76 74.06 191.06 73.15 C 190.56 72.01 190.05 70.86 189.54 69.72 L 191.51 70.70 L 192.15 69.39 C 192.41 69.38 192.94 69.36 193.21 69.35 C 193.66 69.64 193.66 69.64 193.21 69.35 C 190.81 66.43 193.90 63.82 196.61 63.07 C 196.25 62.40 195.54 61.05 195.18 60.38 C 192.80 62.01 190.39 63.58 187.97 65.14 L 187.14 63.84 C 188.65 62.80 190.16 61.77 191.67 60.73 C 190.85 59.16 189.60 58.30 187.77 58.92 C 188.15 57.69 188.60 56.48 189.18 55.33 C 191.07 56.58 191.51 59.47 193.83 60.03 C 194.00 56.84 191.21 54.23 189.06 52.17 C 186.76 54.10 184.50 56.12 181.83 57.51 C 181.85 54.32 186.00 53.23 187.95 51.08 C 187.81 50.46 187.51 49.22 187.36 48.60 C 186.03 47.33 184.69 46.04 183.12 45.06 C 183.24 47.05 185.86 48.41 184.44 50.54 C 183.15 51.76 179.61 53.07 179.42 50.32 C 181.28 51.08 185.56 48.71 182.00 47.52 C 180.06 48.42 178.71 50.20 176.93 51.37 C 176.68 50.22 177.01 49.24 177.91 48.42 C 173.88 46.42 177.98 40.09 181.23 43.78 L 181.64 44.17 L 182.08 43.86 L 181.72 43.39 L 181.23 43.78 C 181.85 41.68 178.67 41.13 179.22 38.98 Z"/>
<path fill="#ffffff" d=" M 54.25 40.18 C 57.11 39.94 59.81 45.16 55.67 45.92 C 56.35 43.60 53.93 42.24 54.25 40.18 Z"/>
<path fill="#ffffff" d=" M 114.92 40.60 C 116.31 40.62 117.71 40.64 119.11 40.66 C 120.24 43.81 120.76 47.13 120.60 50.48 C 123.06 50.92 125.54 51.24 128.03 51.48 C 128.97 48.17 130.33 44.95 132.66 42.35 C 133.94 43.00 136.74 42.82 136.36 45.00 C 136.65 47.84 136.02 50.65 135.24 53.36 C 137.51 54.42 139.83 55.37 142.16 56.30 C 143.98 53.41 146.17 50.71 149.14 48.92 C 150.06 49.47 150.97 50.02 151.89 50.57 C 151.47 53.95 150.10 57.05 148.53 60.03 C 150.58 61.63 152.63 63.23 154.68 64.84 C 157.23 62.32 160.13 59.92 163.72 59.12 C 164.33 60.04 164.93 60.96 165.52 61.88 C 164.48 63.97 163.38 66.08 161.70 67.73 C 161.13 68.60 159.43 69.46 160.26 70.69 C 161.55 72.49 163.03 74.15 164.30 75.98 C 167.46 74.44 170.70 73.11 174.21 72.63 C 174.68 73.93 176.39 75.61 174.97 76.89 C 173.19 79.29 170.57 80.81 168.08 82.33 C 168.97 84.69 169.92 87.02 170.83 89.37 C 174.22 88.43 177.73 88.38 181.22 88.57 C 181.49 89.64 181.75 90.72 182.01 91.79 C 179.35 94.24 175.82 95.10 172.66 96.64 C 173.19 98.98 173.48 101.37 173.66 103.76 C 177.10 104.33 180.71 104.23 183.89 105.86 C 183.89 106.63 183.88 108.18 183.87 108.95 C 180.80 110.70 177.29 111.07 173.81 110.93 C 172.88 113.22 173.07 115.95 172.46 118.39 C 175.89 119.32 179.38 120.48 182.03 122.97 C 181.40 124.02 181.43 125.69 180.13 126.21 C 176.93 126.74 173.73 126.03 170.66 125.18 C 169.48 127.47 168.55 129.87 167.38 132.16 C 169.90 134.47 173.48 135.77 175.00 139.06 C 174.85 140.05 174.47 140.95 173.86 141.76 C 170.22 142.39 166.83 140.28 163.79 138.56 C 162.22 140.72 160.34 142.68 159.00 145.00 C 160.75 147.76 163.15 150.12 164.54 153.15 C 163.94 154.19 163.15 155.06 162.15 155.73 C 159.12 154.24 156.39 152.26 153.94 149.95 C 151.62 151.35 149.52 153.07 147.40 154.75 C 149.33 157.63 150.92 160.95 150.73 164.52 C 149.63 164.82 148.60 166.03 147.42 165.64 C 144.56 163.88 142.66 161.03 140.99 158.19 C 138.60 159.15 136.20 160.08 133.77 160.94 C 135.02 164.29 135.18 167.94 134.48 171.44 C 133.11 171.43 131.54 172.45 130.31 171.56 C 128.15 169.06 127.12 165.88 126.15 162.79 C 123.87 163.18 121.58 163.46 119.29 163.67 C 118.77 167.09 118.45 170.60 117.01 173.80 C 115.84 173.79 114.67 173.78 113.50 173.76 C 112.25 170.50 111.55 167.07 111.49 163.58 C 109.01 163.18 106.51 162.84 104.00 162.76 C 103.35 166.12 101.64 169.13 99.55 171.79 C 98.52 171.66 97.49 171.53 96.46 171.41 C 95.09 167.96 96.09 164.29 96.87 160.84 C 94.41 160.12 92.07 158.42 89.55 158.24 C 87.79 161.05 85.69 163.62 82.97 165.56 C 81.97 164.86 79.67 164.73 80.08 162.99 C 80.09 159.72 82.00 156.90 83.34 154.04 C 81.29 152.54 79.26 151.01 77.19 149.52 C 74.51 151.67 71.62 154.64 68.03 154.70 C 67.59 154.31 66.70 153.52 66.25 153.13 C 67.33 149.54 70.26 147.14 72.14 144.06 C 70.39 142.26 68.97 140.18 67.61 138.08 C 64.45 139.60 61.17 140.84 57.69 141.36 C 57.15 140.34 56.01 139.41 56.25 138.15 C 58.20 135.38 61.04 133.44 63.92 131.75 C 63.07 129.35 62.10 127.00 61.17 124.63 C 57.81 125.62 54.28 125.81 50.82 125.23 C 50.54 124.16 50.24 123.10 49.95 122.03 C 52.58 119.52 56.15 118.57 59.48 117.39 C 59.10 115.03 58.77 112.67 58.52 110.30 C 55.04 110.36 51.66 109.55 48.44 108.30 C 48.45 107.13 48.47 105.97 48.52 104.81 C 51.76 103.50 55.25 103.34 58.66 102.88 C 59.43 100.58 59.37 98.09 59.73 95.71 C 56.77 94.91 53.76 93.80 51.50 91.65 C 50.02 90.74 50.97 88.71 51.91 87.81 C 55.29 87.36 58.70 87.78 62.00 88.53 C 62.84 86.30 63.92 84.18 64.84 81.99 C 62.44 79.69 59.28 77.99 57.35 75.10 C 58.06 74.06 58.18 71.82 59.99 72.23 C 63.20 72.51 66.09 74.06 68.95 75.44 C 70.30 73.65 71.93 72.05 72.99 70.07 C 71.44 67.03 68.57 64.60 67.71 61.12 C 68.51 60.26 69.30 59.40 70.08 58.53 C 73.60 59.50 76.36 61.93 78.91 64.42 C 80.76 62.93 82.64 61.48 84.55 60.08 C 83.18 56.84 81.37 53.56 81.71 49.92 C 82.79 49.41 83.87 48.89 84.95 48.37 C 87.77 50.14 89.68 52.82 91.40 55.60 C 93.65 55.91 95.75 54.03 97.94 53.47 C 97.63 50.04 96.32 46.20 97.96 42.99 C 98.76 42.80 100.36 42.42 101.16 42.22 C 103.27 44.97 104.89 48.08 105.59 51.50 C 107.94 51.24 110.30 50.96 112.65 50.71 C 113.15 47.29 113.16 43.69 114.92 40.60 Z"/>
<path fill="#ffffff" d=" M 181.23 43.78 L 181.72 43.39 L 182.08 43.86 L 181.64 44.17 L 181.23 43.78 Z"/>
<path fill="#ffffff" d=" M 178.20 44.54 C 179.39 43.48 181.61 45.18 180.37 46.51 C 179.10 48.49 176.31 45.96 178.20 44.54 Z"/>
<path fill="#000000" d=" M 107.43 59.68 C 121.06 56.89 135.83 60.53 146.67 69.25 C 156.51 76.98 163.27 88.56 165.04 100.97 C 167.38 116.18 162.27 132.45 151.25 143.27 C 142.42 152.50 129.75 157.95 116.97 157.88 C 107.44 158.06 97.94 155.11 90.02 149.85 C 78.35 142.14 70.21 129.33 68.30 115.46 C 66.65 104.24 69.00 92.52 74.81 82.80 C 81.88 71.04 93.89 62.25 107.43 59.68 Z"/>
<path fill="#ffffff" d=" M 116.28 61.33 C 127.98 61.13 139.65 65.78 148.14 73.81 C 156.92 81.92 162.36 93.53 162.94 105.47 C 163.87 117.96 159.36 130.68 151.01 140.00 C 142.69 149.28 130.48 155.17 117.97 155.32 C 107.40 155.75 96.76 152.15 88.46 145.62 C 77.22 137.06 70.46 123.10 70.31 109.01 C 70.11 96.94 74.78 84.89 82.97 76.03 C 91.49 66.94 103.78 61.36 116.28 61.33 Z"/>
<path fill="#ffffff" d=" M 194.17 67.96 C 193.29 65.77 195.97 65.31 197.23 64.26 C 197.73 65.17 198.22 66.09 198.72 67.00 C 197.27 67.49 195.64 69.33 194.17 67.96 Z"/>
<path fill="#000000" d=" M 115.97 65.24 L 117.18 65.62 C 117.65 75.85 124.99 83.98 126.07 94.05 C 127.48 101.77 125.16 109.66 121.49 116.42 C 120.01 120.54 125.65 123.64 128.83 121.11 C 132.09 117.34 131.97 111.55 129.92 107.24 C 128.30 103.82 128.35 99.69 130.28 96.41 C 133.19 90.71 141.01 88.50 146.58 91.49 C 149.35 92.97 151.78 95.49 152.37 98.68 C 150.71 98.76 148.62 97.90 147.31 99.36 C 145.40 100.77 146.08 103.39 146.83 105.27 C 149.52 112.46 148.37 120.81 144.18 127.19 C 139.68 134.55 131.17 138.54 122.79 139.31 C 122.68 142.24 123.19 145.27 122.27 148.11 C 117.68 148.39 112.73 149.30 108.35 147.70 C 108.01 144.77 108.26 141.82 108.20 138.88 C 97.77 138.40 87.84 131.22 84.88 121.08 C 82.60 114.80 83.96 107.98 86.52 102.02 C 87.03 98.60 83.08 97.46 80.38 97.83 C 82.38 90.67 92.07 87.88 97.99 92.01 C 102.48 94.88 104.83 101.08 102.45 106.04 C 100.39 110.31 99.38 115.69 102.09 119.92 C 103.91 122.88 109.07 122.56 110.29 119.23 C 111.37 117.36 109.95 115.54 109.21 113.86 C 104.77 104.93 104.93 94.12 108.98 85.08 C 111.83 78.68 115.53 72.40 115.97 65.24 Z"/>
<path fill="#ffffff" d=" M 193.21 69.35 C 193.66 69.64 193.66 69.64 193.21 69.35 Z"/>
<path fill="#ffffff" d=" M 116.29 70.75 C 118.68 79.18 123.27 87.08 123.37 96.04 C 123.63 102.42 123.22 109.18 119.73 114.74 C 117.24 119.10 121.23 124.45 125.99 124.25 C 130.37 123.44 133.38 119.22 134.13 115.03 C 135.22 109.13 129.32 103.92 131.97 98.07 C 134.82 91.50 144.64 90.62 148.94 96.21 C 147.25 97.28 145.00 98.13 144.47 100.29 C 143.58 102.13 144.61 104.02 145.10 105.81 C 147.55 113.73 145.52 122.80 139.88 128.88 C 134.97 134.49 127.39 137.61 119.97 137.19 C 113.99 136.94 107.79 137.95 102.06 135.72 C 89.42 131.68 81.85 115.88 87.69 103.71 C 89.45 100.38 86.78 96.91 83.62 95.86 C 88.00 90.21 98.17 91.47 100.45 98.42 C 102.69 103.97 97.27 108.53 97.82 114.03 C 97.90 118.54 101.12 123.58 105.93 123.95 C 110.00 124.14 113.54 120.11 112.69 116.12 C 111.79 113.35 109.88 110.93 109.53 107.96 C 108.64 100.92 108.57 93.56 110.80 86.74 C 112.26 81.27 115.58 76.45 116.29 70.75 Z"/>
<path fill="#000000" d=" M 115.47 84.85 C 115.70 83.69 115.57 82.34 116.53 81.46 C 116.91 85.12 117.39 88.85 119.10 92.16 C 120.49 94.89 121.11 97.95 120.90 101.01 C 121.05 105.63 118.10 109.43 116.47 113.54 C 116.07 113.44 115.26 113.24 114.85 113.14 C 113.79 109.01 110.75 105.46 111.08 100.99 C 110.42 95.10 115.13 90.56 115.47 84.85 Z"/>
<path fill="#ffffff" d=" M 113.13 98.72 C 114.17 95.81 114.30 92.28 116.36 89.87 C 117.52 92.64 118.35 95.54 118.93 98.50 C 117.05 97.47 114.94 97.35 113.13 98.72 Z"/>
<path fill="#000000" d=" M 20.58 99.45 C 21.76 97.62 23.99 97.24 25.91 96.65 C 29.31 97.33 32.68 100.33 32.08 104.06 C 31.75 107.79 27.66 110.68 24.03 109.55 C 19.77 108.69 17.65 102.75 20.58 99.45 Z"/>
<path fill="#000000" d=" M 201.90 106.99 C 198.79 102.91 202.33 97.17 207.05 96.65 C 211.39 96.98 215.37 101.74 213.03 105.95 C 211.42 110.56 204.44 111.02 201.90 106.99 Z"/>
<path fill="#000000" d=" M 94.07 98.08 C 97.27 99.77 96.49 103.58 96.40 106.55 C 95.41 106.13 94.42 105.71 93.43 105.29 C 91.80 107.21 90.52 109.39 89.79 111.81 C 90.97 111.82 92.16 111.84 93.34 111.85 C 93.43 109.89 93.65 107.95 94.02 106.02 C 96.72 108.50 94.63 112.17 95.61 115.28 C 95.58 117.51 97.85 119.22 97.56 121.38 C 95.99 123.20 93.96 121.36 92.35 120.60 C 88.63 118.75 86.71 113.96 88.30 110.09 C 89.19 106.95 92.25 105.30 94.10 102.80 C 95.60 101.50 94.30 99.60 94.07 98.08 Z"/>
<path fill="#000000" d=" M 135.43 102.18 C 135.72 100.24 137.18 99.00 138.95 98.41 C 138.62 99.40 138.14 100.32 137.53 101.17 C 139.39 104.97 143.86 107.27 144.18 111.82 C 144.81 116.47 141.41 120.71 137.23 122.33 C 136.07 123.04 133.84 122.75 134.15 120.92 C 135.39 117.72 136.85 114.46 136.65 110.95 C 136.68 107.97 135.68 105.13 135.43 102.18 Z"/>
<path fill="#ffffff" d=" M 113.17 104.06 C 115.09 104.49 117.12 104.77 118.88 103.56 C 118.12 106.12 117.25 108.66 116.02 111.04 C 114.46 109.00 113.96 106.44 113.17 104.06 Z"/>
<path fill="#ffffff" d=" M 137.51 104.72 C 140.22 106.61 141.40 109.76 142.24 112.82 C 141.06 112.45 139.87 112.34 138.67 112.48 C 139.00 109.82 138.20 107.25 137.51 104.72 Z"/>
<path fill="#ffffff" d=" M 89.96 115.61 C 90.43 115.76 91.39 116.08 91.86 116.24 C 92.31 116.01 93.22 115.55 93.67 115.32 C 94.57 117.13 95.46 118.95 96.10 120.87 C 93.51 119.83 91.55 117.84 89.96 115.61 Z"/>
<path fill="#ffffff" d=" M 135.30 121.40 C 136.28 119.44 137.27 117.48 138.10 115.46 C 138.97 115.72 140.70 116.25 141.57 116.51 C 139.77 118.49 137.80 120.34 135.30 121.40 Z"/>
<path fill="#000000" d=" M 24.69 123.36 L 24.84 123.23 C 27.15 122.98 29.45 122.61 31.74 122.25 C 31.73 122.71 31.70 123.63 31.69 124.09 C 28.92 124.30 26.20 124.86 23.46 125.24 C 23.73 124.70 24.27 123.63 24.54 123.09 L 24.69 123.36 Z"/>
<path fill="#000000" d=" M 201.17 123.21 C 201.66 121.59 204.11 121.71 204.87 123.03 C 205.93 125.01 207.99 122.84 209.47 122.73 C 209.58 125.69 205.68 125.06 204.77 127.35 C 206.07 127.73 207.36 128.18 208.64 128.68 L 207.84 129.76 C 205.19 129.46 202.63 128.65 200.03 128.13 C 200.36 126.48 200.56 124.78 201.17 123.21 Z"/>
<path fill="#ffffff" d=" M 202.48 124.20 C 205.92 122.27 203.34 129.81 201.79 126.10 C 201.96 125.62 202.31 124.67 202.48 124.20 Z"/>
<path fill="#000000" d=" M 24.09 127.95 C 25.19 124.96 30.04 125.64 32.73 125.34 C 31.95 127.67 29.71 129.03 28.20 130.83 C 29.48 130.53 32.03 129.91 33.30 129.61 C 33.37 130.02 33.51 130.83 33.57 131.24 C 30.85 131.60 28.19 132.83 25.43 132.65 C 24.87 130.00 28.60 129.02 29.76 127.13 C 27.89 127.52 26.00 127.80 24.09 127.95 Z"/>
<path fill="#000000" d=" M 199.25 130.67 C 199.85 128.10 202.72 130.40 204.41 130.57 C 207.31 130.89 207.79 134.21 206.21 136.24 C 203.67 138.52 200.41 135.71 197.72 135.16 C 199.48 131.82 204.46 138.14 205.56 133.91 C 205.23 131.45 201.17 131.89 199.25 130.67 Z"/>
<path fill="#000000" d=" M 26.11 134.51 C 28.73 133.58 31.38 132.75 34.07 132.00 C 34.54 133.68 35.19 135.33 35.32 137.09 C 34.18 139.55 30.77 140.61 28.39 139.51 C 27.21 138.06 26.71 136.24 26.11 134.51 Z"/>
<path fill="#ffffff" d=" M 27.92 135.75 C 29.64 135.13 31.37 134.53 33.11 133.94 C 33.41 134.90 33.69 135.88 33.95 136.85 C 31.93 138.38 28.26 139.35 27.92 135.75 Z"/>
<path fill="#000000" d=" M 195.26 141.69 C 196.29 139.67 196.85 135.98 199.94 136.86 C 202.15 137.94 201.47 140.34 200.67 142.13 C 202.05 142.64 203.95 142.90 203.09 144.84 C 200.72 144.00 198.38 143.09 196.09 142.07 C 195.88 141.98 195.46 141.79 195.26 141.69 Z"/>
<path fill="#ffffff" d=" M 198.50 138.40 C 200.80 137.64 200.43 142.46 198.11 141.52 C 196.49 141.00 197.42 138.94 198.50 138.40 Z"/>
<path fill="#ffffff" d=" M 110.89 138.84 C 114.02 138.82 117.16 138.82 120.29 138.83 C 120.30 141.40 120.31 143.96 120.31 146.52 C 117.18 146.99 114.02 146.90 110.90 146.47 C 110.88 143.93 110.87 141.38 110.89 138.84 Z"/>
<path fill="#000000" d=" M 29.21 142.14 C 31.54 141.13 33.93 140.27 36.31 139.38 C 36.43 139.77 36.66 140.55 36.78 140.95 C 34.35 142.05 31.80 142.85 29.30 143.78 C 29.28 143.37 29.23 142.55 29.21 142.14 Z"/>
<path fill="#000000" d=" M 194.38 144.07 C 194.80 143.57 195.66 142.57 196.09 142.07 C 196.27 145.12 201.84 144.50 202.26 147.19 C 200.47 148.65 197.74 148.02 195.57 148.47 C 197.22 149.45 199.89 149.68 200.07 152.03 C 197.25 151.30 194.74 149.78 192.21 148.41 C 193.41 145.80 196.91 147.07 199.20 146.42 C 197.60 145.62 195.99 144.85 194.38 144.07 Z"/>
<path fill="#000000" d=" M 29.54 144.67 C 32.63 144.18 35.76 144.07 38.87 144.27 C 38.96 146.95 36.20 148.66 34.34 150.13 C 34.97 150.54 35.61 150.95 36.25 151.36 C 37.71 150.35 39.21 149.41 40.73 148.50 C 42.78 150.91 38.91 153.36 38.35 155.57 C 40.10 154.60 41.83 153.56 43.77 153.03 C 43.51 156.05 39.32 156.39 37.16 157.92 C 35.15 158.10 36.44 155.81 36.94 155.00 C 37.58 153.81 38.23 152.63 38.88 151.44 C 37.46 152.22 36.06 153.01 34.68 153.85 C 34.04 152.71 33.21 151.71 32.28 150.80 C 32.71 150.10 33.15 149.39 33.58 148.69 C 33.30 147.96 33.02 147.22 32.74 146.48 C 31.39 146.30 30.32 145.69 29.54 144.67 Z"/>
<path fill="#ffffff" d=" M 34.15 147.16 C 33.49 145.81 35.55 144.94 36.56 145.48 C 37.00 146.61 35.12 148.12 34.15 147.16 Z"/>
<path fill="#000000" d=" M 190.00 151.96 C 193.02 151.51 196.09 152.56 199.12 152.82 C 198.53 154.30 197.19 154.37 195.83 154.23 C 194.91 155.78 194.94 157.50 195.74 159.08 C 194.83 159.47 194.23 160.15 193.95 161.14 C 192.36 161.68 190.61 161.25 188.97 161.40 C 189.71 162.75 190.71 163.91 191.74 165.05 C 188.82 165.74 186.63 162.47 184.21 161.12 C 184.35 160.73 184.63 159.94 184.78 159.54 C 185.58 160.08 187.17 161.16 187.97 161.70 C 188.01 159.96 185.28 156.47 188.37 155.99 C 188.51 156.89 188.77 158.69 188.91 159.59 C 190.71 159.62 192.51 159.62 194.31 159.61 C 193.05 157.18 191.00 155.34 189.35 153.19 L 190.00 151.96 Z"/>
<path fill="#ffffff" d=" M 192.22 153.47 C 193.28 152.68 195.24 154.19 194.12 155.32 C 193.08 156.19 191.57 154.46 192.22 153.47 Z"/>
<path fill="#000000" d=" M 41.52 165.30 C 43.06 162.75 45.87 161.39 48.02 159.42 L 48.93 160.92 C 46.41 162.22 44.56 165.77 41.52 165.30 Z"/>
<path fill="#000000" d=" M 49.23 162.15 C 49.64 162.16 50.45 162.19 50.85 162.20 C 50.38 164.43 49.73 166.62 49.06 168.80 C 50.76 167.88 52.06 164.68 54.30 166.00 C 52.33 168.06 50.30 170.11 47.92 171.71 L 46.60 171.12 C 47.30 169.05 47.94 166.95 48.55 164.86 C 47.08 166.10 45.59 167.33 43.93 168.32 C 43.65 165.44 47.52 164.12 49.23 162.15 Z"/>
<path fill="#000000" d=" M 179.65 170.43 C 179.25 168.71 177.62 166.45 179.96 165.32 C 180.43 167.14 180.80 168.99 181.37 170.79 C 182.18 172.01 184.74 172.90 183.01 174.63 C 181.01 171.96 177.73 171.61 174.71 171.02 C 175.51 168.53 177.99 170.26 179.65 170.43 Z"/>
<path fill="#000000" d=" M 52.73 168.71 C 55.17 167.01 57.64 169.77 57.95 172.11 C 61.25 171.74 62.48 175.89 65.51 176.56 L 65.40 177.40 C 67.70 178.10 69.88 179.48 71.33 181.42 C 71.86 181.53 72.91 181.74 73.44 181.85 C 72.68 184.02 68.96 186.64 71.15 188.79 C 74.02 189.44 74.38 185.36 75.97 183.73 C 78.48 184.94 81.11 185.89 83.44 187.45 C 85.65 187.94 89.81 188.01 89.79 190.92 C 88.20 190.69 86.40 188.70 84.96 189.85 C 85.06 191.74 87.46 191.69 88.69 192.57 C 88.55 192.85 88.26 193.42 88.12 193.70 C 86.32 193.08 84.02 191.13 83.28 194.07 C 84.78 194.94 87.15 194.99 87.75 196.91 C 85.39 196.93 83.25 195.74 81.33 194.50 C 82.29 192.43 83.22 190.36 84.19 188.30 C 83.35 188.13 81.68 187.81 80.85 187.65 C 79.47 189.53 79.39 193.63 76.45 193.40 C 77.27 191.28 78.20 189.20 79.27 187.19 C 78.70 186.65 77.56 185.59 76.99 185.06 C 75.62 187.50 73.90 192.46 70.29 189.82 C 66.63 188.11 70.17 184.34 71.27 182.03 C 70.62 181.76 69.31 181.23 68.66 180.96 C 67.06 182.82 66.24 185.41 63.94 186.58 C 63.55 183.96 66.10 182.15 67.17 179.97 C 66.62 179.47 65.53 178.45 64.98 177.95 C 63.15 179.45 62.29 184.22 59.43 182.82 C 60.92 180.65 62.48 178.51 64.17 176.49 L 62.52 176.47 C 62.16 176.21 61.43 175.68 61.07 175.42 C 59.37 177.11 58.23 179.67 55.82 180.42 C 55.54 177.80 58.52 176.42 59.92 174.55 C 59.03 172.98 57.89 171.76 55.98 172.79 C 56.00 171.14 55.89 169.35 53.68 169.68 C 54.12 171.59 56.82 174.08 54.80 175.81 C 52.14 178.60 46.90 172.47 51.03 171.04 C 50.65 173.59 51.64 174.85 53.99 174.80 C 53.48 172.84 51.21 170.73 52.73 168.71 Z"/>
<path fill="#000000" d=" M 171.94 179.07 C 168.42 176.68 171.45 170.83 175.33 171.79 L 175.70 173.18 C 173.76 173.14 171.09 174.35 172.26 176.71 C 173.27 179.46 177.01 179.14 177.64 176.24 C 176.78 176.23 175.05 176.21 174.18 176.20 C 175.13 175.22 176.09 174.25 177.08 173.30 C 177.84 174.26 178.60 175.22 179.36 176.18 C 178.47 179.20 174.59 181.87 171.94 179.07 Z"/>
<path fill="#000000" d=" M 163.62 180.99 C 164.07 178.69 165.95 177.37 168.02 176.62 C 170.14 177.66 172.51 179.37 172.37 182.02 C 171.63 184.96 168.48 185.86 166.00 186.82 L 166.46 187.74 C 164.84 188.51 163.26 189.38 161.72 190.31 C 160.26 187.86 158.76 185.44 157.49 182.88 C 160.36 182.33 160.78 186.27 162.18 188.03 C 164.56 187.63 166.29 185.77 166.33 183.32 L 165.29 184.82 C 164.87 183.86 164.03 181.94 163.62 180.99 Z"/>
<path fill="#ffffff" d=" M 166.16 179.21 C 168.29 177.04 170.33 180.27 170.97 182.10 C 169.34 186.18 163.65 182.17 166.16 179.21 Z"/>
<path fill="#000000" d=" M 151.69 190.82 C 149.00 186.84 155.24 182.47 158.02 185.90 C 160.47 188.00 159.57 192.33 156.40 193.14 C 155.17 193.24 152.52 193.68 153.11 191.44 C 152.33 192.46 150.08 193.38 152.38 194.87 C 149.76 196.06 147.97 192.79 145.75 191.85 C 146.27 193.71 148.18 195.57 147.08 197.57 C 145.26 195.13 143.32 191.83 143.83 188.77 C 145.94 189.84 147.83 191.26 149.76 192.61 C 149.09 190.92 148.35 189.27 147.55 187.64 L 149.14 187.27 C 149.25 187.81 149.47 188.89 149.58 189.43 C 150.11 189.78 151.16 190.47 151.69 190.82 Z"/>
<path fill="#ffffff" d=" M 154.28 186.31 C 157.31 185.10 159.29 190.82 156.10 191.64 C 153.31 192.27 151.74 187.49 154.28 186.31 Z"/>
<path fill="#000000" d=" M 140.64 189.67 C 141.09 189.84 142.01 190.19 142.46 190.36 C 143.33 192.91 144.43 195.53 144.29 198.27 C 142.66 197.78 142.52 196.02 142.00 194.71 C 141.24 194.94 139.74 195.40 138.99 195.63 C 139.24 196.47 139.75 198.14 140.00 198.98 C 139.66 199.13 138.97 199.43 138.62 199.58 C 137.63 196.87 136.73 194.13 136.23 191.28 C 138.15 190.91 138.23 192.99 138.82 194.27 C 139.54 194.02 140.96 193.53 141.68 193.29 C 141.42 192.38 140.90 190.57 140.64 189.67 Z"/>
<path fill="#000000" d=" M 94.99 197.96 C 93.28 194.82 96.74 190.23 100.25 192.01 C 103.38 193.07 102.79 197.11 101.36 199.35 C 99.26 200.51 96.12 200.37 94.99 197.96 Z"/>
<path fill="#000000" d=" M 131.38 192.50 C 132.99 191.39 136.22 192.34 135.52 194.68 C 134.14 194.06 132.69 193.03 131.29 194.24 C 130.74 196.16 131.00 198.61 133.12 199.43 C 134.11 198.54 135.09 197.65 136.08 196.76 C 137.62 198.51 134.90 200.67 133.14 200.53 C 129.08 200.68 127.77 194.16 131.38 192.50 Z"/>
<path fill="#000000" d=" M 103.84 201.57 C 102.60 198.76 104.03 195.55 104.38 192.63 C 106.23 192.95 108.09 193.25 109.94 193.55 C 109.94 196.64 104.63 192.42 105.32 196.17 C 106.64 196.59 108.72 196.13 109.09 197.94 C 108.17 197.91 106.33 197.83 105.41 197.80 C 105.09 199.13 105.08 200.67 103.84 201.57 Z"/>
<path fill="#000000" d=" M 115.46 193.70 C 119.89 193.82 124.24 192.89 128.66 192.89 C 127.89 194.96 125.48 194.23 123.83 194.65 L 123.85 196.34 C 125.40 196.22 126.95 196.15 128.51 196.12 C 127.97 198.88 122.80 196.30 124.24 199.95 C 125.98 200.06 128.58 198.53 129.49 200.73 C 127.27 201.09 125.04 201.32 122.80 201.50 C 122.51 199.14 122.30 196.76 122.16 194.39 C 121.42 194.67 119.93 195.23 119.19 195.51 C 119.56 197.60 119.66 199.72 119.63 201.84 C 119.19 201.82 118.32 201.77 117.88 201.75 C 117.85 199.54 117.74 197.32 117.62 195.11 C 116.97 195.11 115.66 195.11 115.00 195.11 C 115.12 194.76 115.35 194.05 115.46 193.70 Z"/>
<path fill="#ffffff" d=" M 97.05 193.78 C 98.23 192.40 100.78 193.27 100.91 195.07 C 100.99 196.70 99.97 199.43 97.84 198.51 C 95.58 197.99 96.10 195.19 97.05 193.78 Z"/>
</svg>